<?xml version="1.0" encoding="UTF-8"?>
<!DOCTYPE svg PUBLIC "-//W3C//DTD SVG 1.1//EN" "http://www.w3.org/Graphics/SVG/1.1/DTD/svg11.dtd">
<svg xmlns="http://www.w3.org/2000/svg" version="1.1" width="256px" height="256px" style="shape-rendering:geometricPrecision; text-rendering:geometricPrecision; image-rendering:optimizeQuality; fill-rule:evenodd; clip-rule:evenodd" xmlns:xlink="http://www.w3.org/1999/xlink">
<g><path style="opacity:0.015" fill="#000000" d="M -0.5,0.5 C -0.5,0.166667 -0.5,-0.166667 -0.5,-0.5C 24.1667,-0.5 48.8333,-0.5 73.5,-0.5C 73.5,-0.166667 73.5,0.166667 73.5,0.5C 67.4406,0.253895 61.4406,0.587228 55.5,1.5C 37.0075,0.503097 18.3408,0.169764 -0.5,0.5 Z"/></g>
<g><path style="opacity:0.004" fill="#000000" d="M 156.5,-0.5 C 174.833,-0.5 193.167,-0.5 211.5,-0.5C 193.167,0.833333 174.833,0.833333 156.5,-0.5 Z"/></g>
<g><path style="opacity:0.012" fill="#000000" d="M 51.5,5.5 C 51.5,5.83333 51.5,6.16667 51.5,6.5C 48.4816,6.66463 45.4816,6.49796 42.5,6C 44.8098,5.50335 47.1432,5.33669 49.5,5.5C 49.3433,4.12656 49.51,2.79323 50,1.5C 50.21,3.05814 50.71,4.39147 51.5,5.5 Z"/></g>
<g><path style="opacity:0.008" fill="#000000" d="M 91.5,2.5 C 90.8333,1.16667 90.8333,1.16667 91.5,2.5 Z"/></g>
<g><path style="opacity:0.01" fill="#000000" d="M 91.5,2.5 C 92.3382,2.84171 92.6716,3.50838 92.5,4.5C 92.1667,4.5 91.8333,4.5 91.5,4.5C 91.5,3.83333 91.5,3.16667 91.5,2.5 Z"/></g>
<g><path style="opacity:0.004" fill="#000000" d="M 92.5,4.5 C 93.8333,5.16667 93.8333,5.16667 92.5,4.5 Z"/></g>
<g><path style="opacity:0.008" fill="#000000" d="M 193.5,5.5 C 195.966,4.36594 198.633,4.19927 201.5,5C 198.854,5.49742 196.187,5.66409 193.5,5.5 Z"/></g>
<g><path style="opacity:0.006" fill="#000000" d="M 97.5,7.5 C 99.6282,6.37086 101.961,6.20419 104.5,7C 102.19,7.49665 99.8568,7.66331 97.5,7.5 Z"/></g>
<g><path style="opacity:0.009" fill="#000000" d="M 41.5,8.5 C 41.5,9.16667 41.8333,9.5 42.5,9.5C 42.44,10.0431 42.1067,10.3764 41.5,10.5C 40.2267,9.7435 40.2267,9.07683 41.5,8.5 Z"/></g>
<g><path style="opacity:0.004" fill="#000000" d="M 108.5,10.5 C 108.897,9.47498 109.563,9.30831 110.5,10C 109.906,10.4643 109.239,10.631 108.5,10.5 Z"/></g>
<g><path style="opacity:0.012" fill="#000000" d="M 27.5,15.5 C 28.8333,16.1667 28.8333,16.1667 27.5,15.5 Z"/></g>
<g><path style="opacity:0.008" fill="#000000" d="M 130.5,20.5 C 130.369,19.7611 130.536,19.0944 131,18.5C 131.692,19.4368 131.525,20.1034 130.5,20.5 Z"/></g>
<g><path style="opacity:0.013" fill="#000000" d="M 38.5,20.5 C 38.4891,23.0009 37.8224,23.1676 36.5,21C 37.0944,20.5357 37.7611,20.369 38.5,20.5 Z"/></g>
<g><path style="opacity:0.006" fill="#000000" d="M 129.5,20.5 C 129.833,20.5 130.167,20.5 130.5,20.5C 130.672,21.4916 130.338,22.1583 129.5,22.5C 129.5,21.8333 129.5,21.1667 129.5,20.5 Z"/></g>
<g><path style="opacity:0.004" fill="#000000" d="M 128.5,22.5 C 128.833,22.5 129.167,22.5 129.5,22.5C 129.315,23.1701 128.981,23.1701 128.5,22.5 Z"/></g>
<g><path style="opacity:0.013" fill="#000000" d="M 125.5,24.5 C 125.5,24.1667 125.5,23.8333 125.5,23.5C 126.5,23.5 127.5,23.5 128.5,23.5C 127.791,24.404 126.791,24.7373 125.5,24.5 Z"/></g>
<g><path style="opacity:0.008" fill="#000000" d="M 124.5,24.5 C 124.833,24.5 125.167,24.5 125.5,24.5C 125.315,25.1701 124.981,25.1701 124.5,24.5 Z"/></g>
<g><path style="opacity:0.012" fill="#000000" d="M 102.5,26.5 C 102.5,26.1667 102.5,25.8333 102.5,25.5C 106.167,25.5 109.833,25.5 113.5,25.5C 113.5,25.8333 113.5,26.1667 113.5,26.5C 109.833,26.5 106.167,26.5 102.5,26.5 Z"/></g>
<g><path style="opacity:0.013" fill="#000000" d="M 124.5,25.5 C 122.034,26.6341 119.367,26.8007 116.5,26C 119.146,25.5026 121.813,25.3359 124.5,25.5 Z"/></g>
<g><path style="opacity:0.004" fill="#190000" d="M 171.5,24.5 C 171.631,25.2389 171.464,25.9056 171,26.5C 170.308,25.5632 170.475,24.8966 171.5,24.5 Z"/></g>
<g><path style="opacity:0.012" fill="#000000" d="M 99.5,27.5 C 99.5,27.1667 99.5,26.8333 99.5,26.5C 100.5,26.5 101.5,26.5 102.5,26.5C 101.791,27.404 100.791,27.7373 99.5,27.5 Z"/></g>
<g><path style="opacity:0.004" fill="#000000" d="M 113.5,26.5 C 114.239,26.369 114.906,26.5357 115.5,27C 114.563,27.6917 113.897,27.525 113.5,26.5 Z"/></g>
<g><path style="opacity:0.008" fill="#101010" d="M 97.5,28.5 C 97.5,28.1667 97.5,27.8333 97.5,27.5C 98.1667,27.5 98.8333,27.5 99.5,27.5C 99.1583,28.3382 98.4916,28.6716 97.5,28.5 Z"/></g>
<g><path style="opacity:0.01" fill="#000000" d="M 96.5,28.5 C 96.8333,28.5 97.1667,28.5 97.5,28.5C 97.7373,29.791 97.404,30.791 96.5,31.5C 96.5,30.5 96.5,29.5 96.5,28.5 Z"/></g>
<g><path style="opacity:0.008" fill="#000000" d="M 149.5,28.5 C 150.833,29.1667 150.833,29.1667 149.5,28.5 Z"/></g>
<g><path style="opacity:0.975" fill="#141311" d="M 74.5,-0.5 C 77.1667,-0.5 79.8333,-0.5 82.5,-0.5C 82.8333,0.833333 83.1667,0.833333 83.5,-0.5C 107.5,-0.5 131.5,-0.5 155.5,-0.5C 132.337,0.33207 109.004,0.83207 85.5,1C 87.8867,1.56375 89.8867,2.73042 91.5,4.5C 90.6971,5.42317 90.5304,6.42317 91,7.5C 91.3333,7.16667 91.6667,6.83333 92,6.5C 96.6647,7.73906 96.498,8.57239 91.5,9C 95.8134,8.75497 100.147,8.75497 104.5,9C 105.222,11.787 106.722,12.6204 109,11.5C 112.794,12.2297 116.627,12.7297 120.5,13C 124.943,13.8969 127.943,16.3969 129.5,20.5C 128.662,20.8417 128.328,21.5084 128.5,22.5C 127.209,22.2627 126.209,22.596 125.5,23.5C 124.833,23.5 124.5,23.8333 124.5,24.5C 120.766,24.3227 117.099,24.6561 113.5,25.5C 109.833,24.1667 106.167,24.1667 102.5,25.5C 101.209,25.2627 100.209,25.596 99.5,26.5C 98.5084,26.3284 97.8417,26.6618 97.5,27.5C 96.8333,27.5 96.5,27.8333 96.5,28.5C 95.596,29.209 95.2627,30.209 95.5,31.5C 94.6618,31.8417 94.3284,32.5084 94.5,33.5C 93.8333,33.5 93.5,33.8333 93.5,34.5C 88.7772,35.2314 85.1106,37.5647 82.5,41.5C 81.8333,41.5 81.5,41.8333 81.5,42.5C 80.5084,42.3284 79.8417,42.6618 79.5,43.5C 78.8333,43.5 78.5,43.8333 78.5,44.5C 77.1301,44.8565 76.1301,45.6898 75.5,47C 75.9821,49.8193 76.9821,52.3193 78.5,54.5C 78.6287,56.2161 78.962,57.8828 79.5,59.5C 78.2223,59.2178 77.2223,58.5511 76.5,57.5C 76.6716,56.5084 76.3382,55.8417 75.5,55.5C 75.3404,53.847 74.6737,52.5137 73.5,51.5C 73.573,49.9731 72.9063,48.9731 71.5,48.5C 71.44,47.9569 71.1067,47.6236 70.5,47.5C 69.8313,49.6309 69.1646,51.6309 68.5,53.5C 66.5526,50.0766 65.0526,46.4099 64,42.5C 61.932,40.6038 60.0987,38.6038 58.5,36.5C 56.359,35.1882 54.6924,33.3549 53.5,31C 47.4875,28.8012 42.4875,25.3012 38.5,20.5C 35.8539,18.7475 32.8539,17.7475 29.5,17.5C 29.5,16.5 29.5,15.5 29.5,14.5C 32.0895,14.6038 34.4229,13.9371 36.5,12.5C 37.4419,12.6082 38.2753,12.9415 39,13.5C 40.8259,11.9262 42.9925,11.0929 45.5,11C 44.4734,10.4867 43.4734,9.98672 42.5,9.5C 41.8333,9.5 41.5,9.16667 41.5,8.5C 44.8333,7.83333 48.1667,7.16667 51.5,6.5C 52.8333,6.16667 52.8333,5.83333 51.5,5.5C 51.5,4.16667 51.5,2.83333 51.5,1.5C 52.8333,1.5 54.1667,1.5 55.5,1.5C 55.7352,2.09674 56.2352,2.43007 57,2.5C 62.6453,1.89772 68.1453,1.23105 73.5,0.5C 74.1667,0.5 74.5,0.166667 74.5,-0.5 Z M 52.5,25.5 C 52.8333,25.5 53.1667,25.5 53.5,25.5C 53.5,26.1667 53.8333,26.5 54.5,26.5C 54.5,26.8333 54.5,27.1667 54.5,27.5C 53.1667,27.5 52.5,26.8333 52.5,25.5 Z M 90.5,24.5 C 89.8968,27.0409 89.8968,29.3743 90.5,31.5C 89.7494,32.5735 88.7494,32.7401 87.5,32C 88.282,29.3281 89.282,26.8281 90.5,24.5 Z M 70.5,29.5 C 69.8333,29.5 69.5,29.8333 69.5,30.5C 68.291,28.5654 68.4577,26.5654 70,24.5C 70.4935,26.1341 70.6602,27.8008 70.5,29.5 Z M 48.5,23.5 C 49.8478,24.5268 50.3478,25.8602 50,27.5C 49.0053,26.9341 48.172,26.2674 47.5,25.5C 48.3382,25.1583 48.6716,24.4916 48.5,23.5 Z M 45.5,23.5 C 46.5,23.8333 47.1667,24.5 47.5,25.5C 46.1667,25.5 45.5,24.8333 45.5,23.5 Z M 92.5,23.5 C 93.3023,22.1153 93.9689,22.282 94.5,24C 94.4301,24.7648 94.0967,25.2648 93.5,25.5C 93.6716,24.5084 93.3382,23.8417 92.5,23.5 Z M 58.5,26.5 C 58.5,27.1667 58.8333,27.5 59.5,27.5C 60.625,28.6522 60.625,29.6522 59.5,30.5C 58.4154,28.4131 56.7488,27.0798 54.5,26.5C 53.8333,26.5 53.5,26.1667 53.5,25.5C 53.5,24.5 53.5,23.5 53.5,22.5C 54.8333,22.5 56.1667,22.5 57.5,22.5C 57.2322,24.099 57.5655,25.4324 58.5,26.5 Z M 77.5,21.5 C 77.5,21.8333 77.5,22.1667 77.5,22.5C 75.744,23.5521 75.0773,25.2188 75.5,27.5C 74.5386,25.7354 74.2053,23.7354 74.5,21.5C 75.5,21.5 76.5,21.5 77.5,21.5 Z M 63.5,21.5 C 63.5569,22.609 63.8902,23.609 64.5,24.5C 62.4482,23.9473 62.1148,22.9473 63.5,21.5 Z M 47.5,21.5 C 49.6977,21.4088 50.0311,22.0755 48.5,23.5C 47.6618,23.1583 47.3284,22.4916 47.5,21.5 Z M 77.5,21.5 C 78.5676,20.5655 79.901,20.2322 81.5,20.5C 81.5,23.1667 81.5,25.8333 81.5,28.5C 80.4168,28.5394 79.4168,28.8728 78.5,29.5C 77.8182,28.7573 77.1515,28.0906 76.5,27.5C 76.366,25.7085 76.6993,24.0418 77.5,22.5C 81.5,22.1667 81.5,21.8333 77.5,21.5 Z M 63.5,21.5 C 64.209,20.596 65.209,20.2627 66.5,20.5C 66.6621,22.5273 66.4955,24.5273 66,26.5C 65.2828,25.9558 64.7828,25.2891 64.5,24.5C 65.8852,23.0527 65.5518,22.0527 63.5,21.5 Z M 44.5,20.5 C 45.791,20.2627 46.791,20.596 47.5,21.5C 46.1667,21.5 45.5,22.1667 45.5,23.5C 44.596,22.791 44.2627,21.791 44.5,20.5 Z M 59.5,26.5 C 59.1667,26.5 58.8333,26.5 58.5,26.5C 58.5,24.8333 58.5,23.1667 58.5,21.5C 56.5,21.5 54.5,21.5 52.5,21.5C 54.8927,20.79 57.3927,20.1233 60,19.5C 59.7932,21.7513 59.6265,24.0846 59.5,26.5 Z M 44.5,20.5 C 43.3523,21.895 42.3523,21.7284 41.5,20C 42.7494,19.2599 43.7494,19.4265 44.5,20.5 Z M 92.5,16.5 C 91.5313,17.3094 90.6979,18.3094 90,19.5C 89.5172,18.552 89.3505,17.552 89.5,16.5C 90.5,16.5 91.5,16.5 92.5,16.5 Z M 86.5,16.5 C 88.6019,19.7338 88.4352,22.7338 86,25.5C 86.1519,22.553 86.3185,19.553 86.5,16.5 Z M 100.5,14.5 C 99.1667,15.1667 97.8333,15.8333 96.5,16.5C 95.1667,16.5 93.8333,16.5 92.5,16.5C 94.78,14.7773 97.4467,14.1107 100.5,14.5 Z M 88.5,12.5 C 89.2891,12.7828 89.9558,13.2828 90.5,14C 89.184,14.5281 88.5173,14.0281 88.5,12.5 Z M 82.5,28.5 C 82.7471,25.0613 82.4137,21.728 81.5,18.5C 82.4511,17.0813 82.7845,15.4147 82.5,13.5C 81.1779,13.33 80.0113,13.6634 79,14.5C 78.5,13.3333 77.6667,12.5 76.5,12C 71.8333,11.6667 67.1667,11.3333 62.5,11C 67.6379,8.81054 72.9713,8.14388 78.5,9C 77.2888,9.89277 77.2888,10.7261 78.5,11.5C 80.0709,12.3094 81.7376,12.6427 83.5,12.5C 84.1327,17.8783 83.7994,23.2116 82.5,28.5 Z M 71.5,30.5 C 72.9063,30.9731 73.573,31.9731 73.5,33.5C 73.1667,33.5 72.8333,33.5 72.5,33.5C 71.8902,32.609 71.5569,31.609 71.5,30.5 Z M 85.5,30.5 C 85.7373,31.791 85.404,32.791 84.5,33.5C 84.5,32.8333 84.1667,32.5 83.5,32.5C 83.8333,31.5 84.5,30.8333 85.5,30.5 Z M 62.5,31.5 C 63.5983,32.6009 63.765,33.9343 63,35.5C 62.4867,34.4734 61.9867,33.4734 61.5,32.5C 62.1667,32.5 62.5,32.1667 62.5,31.5 Z M 70.5,33.5 C 71.1667,33.5 71.8333,33.5 72.5,33.5C 72.1788,35.0481 71.1788,35.7148 69.5,35.5C 69.8333,34.8333 70.1667,34.1667 70.5,33.5 Z M 82.5,33.5 C 82.5,34.1667 82.8333,34.5 83.5,34.5C 83.0269,35.9063 82.0269,36.573 80.5,36.5C 80.427,34.9731 81.0937,33.9731 82.5,33.5 Z M 68.5,35.5 C 68.8333,35.5 69.1667,35.5 69.5,35.5C 70.1667,36.1667 70.8333,36.8333 71.5,37.5C 69.8212,37.7148 68.8212,37.0481 68.5,35.5 Z M 71.5,48.5 C 72.9063,48.9731 73.573,49.9731 73.5,51.5C 73.1667,51.5 72.8333,51.5 72.5,51.5C 71.8902,50.609 71.5569,49.609 71.5,48.5 Z"/></g>
<g><path style="opacity:0.008" fill="#0d0c01" d="M 59.5,27.5 C 60.5,27.5 61.5,27.5 62.5,27.5C 62.5,27.8333 62.5,28.1667 62.5,28.5C 61.8999,29.9002 60.8999,30.9002 59.5,31.5C 59.5,31.1667 59.5,30.8333 59.5,30.5C 60.625,29.6522 60.625,28.6522 59.5,27.5 Z"/></g>
<g><path style="opacity:0.011" fill="#0a0a0a" d="M 92.5,23.5 C 93.3382,23.8417 93.6716,24.5084 93.5,25.5C 92.6618,25.8417 92.3284,26.5084 92.5,27.5C 91.6618,27.8417 91.3284,28.5084 91.5,29.5C 90.6618,29.8417 90.3284,30.5084 90.5,31.5C 89.8968,29.3743 89.8968,27.0409 90.5,24.5C 91.4916,24.6716 92.1583,24.3382 92.5,23.5 Z"/></g>
<g><path style="opacity:0.015" fill="#030303" d="M 77.5,22.5 C 76.6993,24.0418 76.366,25.7085 76.5,27.5C 76.1667,27.5 75.8333,27.5 75.5,27.5C 75.0773,25.2188 75.744,23.5521 77.5,22.5 Z"/></g>
<g><path style="opacity:0.012" fill="#140d0d" d="M 63.5,21.5 C 65.5518,22.0527 65.8852,23.0527 64.5,24.5C 63.8902,23.609 63.5569,22.609 63.5,21.5 Z"/></g>
<g><path style="opacity:0.013" fill="#000000" d="M 52.5,21.5 C 54.5,21.5 56.5,21.5 58.5,21.5C 58.5,23.1667 58.5,24.8333 58.5,26.5C 57.5655,25.4324 57.2322,24.099 57.5,22.5C 56.1667,22.5 54.8333,22.5 53.5,22.5C 53.5,23.5 53.5,24.5 53.5,25.5C 53.1667,25.5 52.8333,25.5 52.5,25.5C 52.5,24.1667 52.5,22.8333 52.5,21.5 Z"/></g>
<g><path style="opacity:0.014" fill="#060606" d="M 47.5,21.5 C 47.3284,22.4916 47.6618,23.1583 48.5,23.5C 48.6716,24.4916 48.3382,25.1583 47.5,25.5C 47.1667,24.5 46.5,23.8333 45.5,23.5C 45.5,22.1667 46.1667,21.5 47.5,21.5 Z"/></g>
<g><path style="opacity:0.012" fill="#545554" d="M 148.5,29.5 C 148.833,29.5 149.167,29.5 149.5,29.5C 149.315,30.1701 148.981,30.1701 148.5,29.5 Z"/></g>
<g><path style="opacity:0.013" fill="#120000" d="M 71.5,30.5 C 71.5569,31.609 71.8902,32.609 72.5,33.5C 71.8333,33.5 71.1667,33.5 70.5,33.5C 70.2627,32.209 70.596,31.209 71.5,30.5 Z"/></g>
<g><path style="opacity:0.01" fill="#000000" d="M 95.5,31.5 C 95.8333,31.5 96.1667,31.5 96.5,31.5C 96.6716,32.4916 96.3382,33.1583 95.5,33.5C 95.5,32.8333 95.5,32.1667 95.5,31.5 Z"/></g>
<g><path style="opacity:0.004" fill="#484848" d="M 147.5,30.5 C 147.833,30.5 148.167,30.5 148.5,30.5C 148.573,32.0269 147.906,33.0269 146.5,33.5C 146.5,32.8333 146.5,32.1667 146.5,31.5C 147.167,31.5 147.5,31.1667 147.5,30.5 Z"/></g>
<g><path style="opacity:0.978" fill="#181513" d="M 240.5,50.5 C 239.833,50.5 239.5,50.8333 239.5,51.5C 237.901,51.2322 236.568,51.5655 235.5,52.5C 233.901,52.2322 232.568,52.5655 231.5,53.5C 228.551,54.0126 225.718,54.0126 223,53.5C 222.608,57.5276 222.108,61.5276 221.5,65.5C 219.808,67.2048 218.475,69.2048 217.5,71.5C 216.833,71.5 216.5,71.8333 216.5,72.5C 214.833,73.5 213.5,74.8333 212.5,76.5C 211.833,76.5 211.5,76.8333 211.5,77.5C 210.833,77.5 210.5,77.8333 210.5,78.5C 209.833,78.5 209.5,78.8333 209.5,79.5C 208.833,79.5 208.5,79.8333 208.5,80.5C 207.833,80.5 207.5,80.8333 207.5,81.5C 206.833,81.5 206.5,81.8333 206.5,82.5C 205.833,82.5 205.5,82.8333 205.5,83.5C 204.833,83.5 204.5,83.8333 204.5,84.5C 203.833,84.5 203.5,84.8333 203.5,85.5C 202.833,85.5 202.5,85.8333 202.5,86.5C 201.833,86.5 201.5,86.8333 201.5,87.5C 200.833,87.5 200.5,87.8333 200.5,88.5C 199.833,88.5 199.5,88.8333 199.5,89.5C 198.833,89.5 198.5,89.8333 198.5,90.5C 197.026,91.4363 196.026,92.7697 195.5,94.5C 194.833,94.5 194.5,94.8333 194.5,95.5C 193.662,95.8417 193.328,96.5084 193.5,97.5C 192.833,97.5 192.5,97.8333 192.5,98.5C 191.662,98.8417 191.328,99.5084 191.5,100.5C 190.833,100.5 190.5,100.833 190.5,101.5C 189.662,101.842 189.328,102.508 189.5,103.5C 188.833,103.5 188.5,103.833 188.5,104.5C 187.662,104.842 187.328,105.508 187.5,106.5C 186.662,106.842 186.328,107.508 186.5,108.5C 185.662,108.842 185.328,109.508 185.5,110.5C 184.596,111.209 184.263,112.209 184.5,113.5C 183.662,113.842 183.328,114.508 183.5,115.5C 182.596,116.209 182.263,117.209 182.5,118.5C 181.566,119.568 181.232,120.901 181.5,122.5C 180.549,123.919 180.216,125.585 180.5,127.5C 178.03,141.481 180.697,154.481 188.5,166.5C 188.427,168.027 189.094,169.027 190.5,169.5C 190.5,170.167 190.833,170.5 191.5,170.5C 191.833,172.833 193.167,174.167 195.5,174.5C 196.287,176.104 197.62,176.771 199.5,176.5C 202.5,177.833 205.5,177.833 208.5,176.5C 210.415,176.784 212.081,176.451 213.5,175.5C 223.225,172.388 232.391,168.055 241,162.5C 241.464,163.094 241.631,163.761 241.5,164.5C 240.833,164.5 240.5,164.833 240.5,165.5C 239.833,165.5 239.5,165.833 239.5,166.5C 238.833,166.5 238.5,166.833 238.5,167.5C 237.508,167.328 236.842,167.662 236.5,168.5C 235.833,168.5 235.5,168.833 235.5,169.5C 234.833,169.5 234.5,169.833 234.5,170.5C 233.508,170.328 232.842,170.662 232.5,171.5C 231.833,171.5 231.5,171.833 231.5,172.5C 230.833,172.5 230.5,172.833 230.5,173.5C 229.508,173.328 228.842,173.662 228.5,174.5C 227.833,174.5 227.5,174.833 227.5,175.5C 226.833,175.5 226.5,175.833 226.5,176.5C 225.833,176.5 225.5,176.833 225.5,177.5C 224.833,177.5 224.5,177.833 224.5,178.5C 223.833,178.5 223.5,178.833 223.5,179.5C 222.833,179.5 222.5,179.833 222.5,180.5C 221.833,180.5 221.5,180.833 221.5,181.5C 220.167,182.833 220.167,184.167 221.5,185.5C 221.5,186.167 221.833,186.5 222.5,186.5C 222.973,187.906 223.973,188.573 225.5,188.5C 226.5,190.167 227.833,191.5 229.5,192.5C 229.5,193.167 229.833,193.5 230.5,193.5C 230.5,194.167 230.833,194.5 231.5,194.5C 231.833,195.5 232.5,196.167 233.5,196.5C 233.5,197.167 233.833,197.5 234.5,197.5C 234.5,198.167 234.833,198.5 235.5,198.5C 235.5,199.167 235.833,199.5 236.5,199.5C 242.839,206.849 248.172,214.849 252.5,223.5C 252.393,225.379 252.893,225.712 254,224.5C 254.168,200.33 254.668,176.33 255.5,152.5C 255.5,179.833 255.5,207.167 255.5,234.5C 255.167,234.5 254.833,234.5 254.5,234.5C 254.068,233.29 253.401,232.29 252.5,231.5C 252.573,229.973 251.906,228.973 250.5,228.5C 248.518,225.19 246.185,222.19 243.5,219.5C 243.573,217.973 242.906,216.973 241.5,216.5C 240.833,215.167 239.833,214.167 238.5,213.5C 238.262,211.596 237.262,210.262 235.5,209.5C 235.5,208.833 235.167,208.5 234.5,208.5C 234.5,207.833 234.167,207.5 233.5,207.5C 232.738,205.738 231.404,204.738 229.5,204.5C 229.5,203.833 229.167,203.5 228.5,203.5C 228.5,202.833 228.167,202.5 227.5,202.5C 227.158,201.662 226.492,201.328 225.5,201.5C 225.328,202.492 225.662,203.158 226.5,203.5C 226.328,204.492 226.662,205.158 227.5,205.5C 227.328,206.492 227.662,207.158 228.5,207.5C 230.93,213.357 233.597,219.023 236.5,224.5C 236.41,227.152 237.076,229.485 238.5,231.5C 239.198,238.014 240.198,244.347 241.5,250.5C 241.196,252.796 240.196,253.129 238.5,251.5C 238.741,249.102 238.074,247.102 236.5,245.5C 229.197,226.206 218.864,208.873 205.5,193.5C 205.5,192.833 205.167,192.5 204.5,192.5C 201.805,189.474 199.138,186.474 196.5,183.5C 196.5,182.833 196.167,182.5 195.5,182.5C 195.5,181.833 195.167,181.5 194.5,181.5C 194.5,180.833 194.167,180.5 193.5,180.5C 189.415,175.757 185.749,170.757 182.5,165.5C 181.513,162.854 180.513,160.188 179.5,157.5C 179.043,156.702 178.376,156.369 177.5,156.5C 178.561,159.622 179.895,162.622 181.5,165.5C 180.833,165.5 180.167,165.5 179.5,165.5C 173.18,156.198 168.514,146.198 165.5,135.5C 163.479,119.942 166.812,105.608 175.5,92.5C 176.167,92.5 176.5,92.1667 176.5,91.5C 177.338,91.1583 177.672,90.4916 177.5,89.5C 180.087,88.3515 181.087,86.6848 180.5,84.5C 180.833,83.5 181.5,82.8333 182.5,82.5C 182.369,83.2389 182.536,83.9056 183,84.5C 184.883,83.3474 185.716,81.6807 185.5,79.5C 186.833,78.1667 186.833,76.8333 185.5,75.5C 184.416,70.2831 181.749,69.2831 177.5,72.5C 177.167,72.5 176.833,72.5 176.5,72.5C 173.5,71.1667 170.5,71.1667 167.5,72.5C 161.5,72.5 155.5,72.5 149.5,72.5C 149.393,70.0968 150.393,68.2635 152.5,67C 159.873,63.5631 167.04,59.7298 174,55.5C 174.016,48.0565 175.183,41.0565 177.5,34.5C 175.977,30.7712 173.977,27.4379 171.5,24.5C 170.651,21.9649 169.651,19.4649 168.5,17C 169.821,14.346 171.821,12.346 174.5,11C 211.351,-0.64947 233.351,12.5172 240.5,50.5 Z M 192.5,82.5 C 193.302,81.1153 193.969,81.282 194.5,83C 194.43,83.7648 194.097,84.2648 193.5,84.5C 193.672,83.5084 193.338,82.8417 192.5,82.5 Z M 189.5,85.5 C 189.573,87.0269 188.906,88.0269 187.5,88.5C 187.427,86.9731 188.094,85.9731 189.5,85.5 Z M 186.5,93.5 C 186.833,93.5 187.167,93.5 187.5,93.5C 187.573,95.0269 186.906,96.0269 185.5,96.5C 185.167,95.8333 184.833,95.1667 184.5,94.5C 185.492,94.6716 186.158,94.3382 186.5,93.5 Z M 175.5,125.5 C 175.5,131.5 175.5,137.5 175.5,143.5C 174.596,144.209 174.263,145.209 174.5,146.5C 173.539,144.735 173.205,142.735 173.5,140.5C 174.167,135.5 174.833,130.5 175.5,125.5 Z M 175.5,143.5 C 176.623,145.688 176.623,148.021 175.5,150.5C 174.566,149.432 174.232,148.099 174.5,146.5C 175.404,145.791 175.737,144.791 175.5,143.5 Z M 176.5,153.5 C 175.596,152.791 175.263,151.791 175.5,150.5C 177.783,149.924 178.117,150.924 176.5,153.5 Z M 176.5,153.5 C 178.796,153.804 179.129,154.804 177.5,156.5C 176.596,155.791 176.263,154.791 176.5,153.5 Z M 177.5,156.5 C 178.376,156.369 179.043,156.702 179.5,157.5C 180.513,160.188 181.513,162.854 182.5,165.5C 182.167,165.5 181.833,165.5 181.5,165.5C 179.895,162.622 178.561,159.622 177.5,156.5 Z M 211.5,165.5 C 213.769,167.799 214.102,170.466 212.5,173.5C 212.167,173.5 211.833,173.5 211.5,173.5C 212.833,170.833 212.833,168.167 211.5,165.5 Z M 188.5,166.5 C 189.906,166.973 190.573,167.973 190.5,169.5C 189.094,169.027 188.427,168.027 188.5,166.5 Z M 191.5,170.5 C 193.167,171.5 194.5,172.833 195.5,174.5C 193.167,174.167 191.833,172.833 191.5,170.5 Z M 211.5,173.5 C 211.5,174.833 212.167,175.5 213.5,175.5C 212.081,176.451 210.415,176.784 208.5,176.5C 208.5,176.167 208.5,175.833 208.5,175.5C 209.778,175.218 210.778,174.551 211.5,173.5 Z M 222.5,186.5 C 223.167,186.5 223.833,186.5 224.5,186.5C 224.833,187.167 225.167,187.833 225.5,188.5C 223.973,188.573 222.973,187.906 222.5,186.5 Z M 231.5,194.5 C 232.167,194.5 232.833,194.5 233.5,194.5C 233.5,195.167 233.5,195.833 233.5,196.5C 232.5,196.167 231.833,195.5 231.5,194.5 Z M 225.5,201.5 C 226.492,201.328 227.158,201.662 227.5,202.5C 226.833,202.5 226.5,202.833 226.5,203.5C 225.662,203.158 225.328,202.492 225.5,201.5 Z M 229.5,204.5 C 231.404,204.738 232.738,205.738 233.5,207.5C 232.833,207.5 232.167,207.5 231.5,207.5C 231.5,206.833 231.167,206.5 230.5,206.5C 230.167,205.833 229.833,205.167 229.5,204.5 Z M 235.5,209.5 C 237.262,210.262 238.262,211.596 238.5,213.5C 237.5,212.833 236.5,212.167 235.5,211.5C 235.5,210.833 235.5,210.167 235.5,209.5 Z M 241.5,216.5 C 242.906,216.973 243.573,217.973 243.5,219.5C 242.094,219.027 241.427,218.027 241.5,216.5 Z M 250.5,228.5 C 251.906,228.973 252.573,229.973 252.5,231.5C 251.094,231.027 250.427,230.027 250.5,228.5 Z"/></g>
<g><path style="opacity:1" fill="#da0812" d="M 228.5,27.5 C 229.496,27.4142 230.329,27.7476 231,28.5C 234.475,34.2822 236.975,40.4489 238.5,47C 238.245,48.3261 237.578,49.3261 236.5,50C 232.246,51.3141 227.913,52.1474 223.5,52.5C 223.66,50.8008 223.494,49.1341 223,47.5C 221.483,44.6568 219.983,41.8234 218.5,39C 218.862,37.7753 219.362,36.6086 220,35.5C 223.333,33.3329 226.166,30.6662 228.5,27.5 Z"/></g>
<g><path style="opacity:1" fill="#f8e605" d="M 210.5,33.5 C 210.158,32.6618 209.492,32.3284 208.5,32.5C 208.158,31.6618 207.492,31.3284 206.5,31.5C 202.902,29.2597 198.902,27.9264 194.5,27.5C 194.5,21.1667 194.5,14.8333 194.5,8.5C 205.821,7.55141 215.655,10.8847 224,18.5C 225.301,20.3646 225.635,22.3646 225,24.5C 222.584,29.0006 219.917,33.3339 217,37.5C 215.028,35.7682 212.861,34.4348 210.5,33.5 Z"/></g>
<g><path style="opacity:1" fill="#dc0712" d="M 182.5,9.5 C 185.5,9.5 188.5,9.5 191.5,9.5C 191.5,15.8333 191.5,22.1667 191.5,28.5C 187.059,29.0521 183.059,30.7188 179.5,33.5C 176.16,28.8247 173.327,23.8247 171,18.5C 170.316,17.2161 170.483,16.0495 171.5,15C 175.017,12.6738 178.683,10.8405 182.5,9.5 Z"/></g>
<g><path style="opacity:0.991" fill="#d91f1c" d="M 203.5,35.5 C 198.897,36.3833 194.23,36.7166 189.5,36.5C 191.883,35.1149 193.55,33.1149 194.5,30.5C 196.194,29.314 197.861,29.4807 199.5,31C 201.635,31.8763 202.969,33.3763 203.5,35.5 Z"/></g>
<g><path style="opacity:0.99" fill="#3a3a3a" d="M 139.5,31.5 C 140.167,32.8333 140.833,32.8333 141.5,31.5C 142.167,31.5 142.5,31.1667 142.5,30.5C 144.386,29.6394 146.22,28.6394 148,27.5C 148.464,28.0944 148.631,28.7611 148.5,29.5C 147.833,29.5 147.5,29.8333 147.5,30.5C 146.833,30.5 146.5,30.8333 146.5,31.5C 145.662,31.8417 145.328,32.5084 145.5,33.5C 143.604,36.743 141.27,39.743 138.5,42.5C 137.824,41.3984 137.158,40.3984 136.5,39.5C 136.737,38.209 136.404,37.209 135.5,36.5C 133.929,33.2559 131.595,30.5892 128.5,28.5C 132.417,28.0195 136.084,29.0195 139.5,31.5 Z"/></g>
<g><path style="opacity:0.004" fill="#1e1e1e" d="M 142.5,30.5 C 141.833,30.5 141.5,30.8333 141.5,31.5C 140.833,31.5 140.167,31.5 139.5,31.5C 140.221,29.6182 141.221,29.2848 142.5,30.5 Z"/></g>
<g><path style="opacity:0.01" fill="#000000" d="M 72.5,33.5 C 72.8333,33.5 73.1667,33.5 73.5,33.5C 73.5,34.5 73.5,35.5 73.5,36.5C 72.8333,36.5 72.5,36.8333 72.5,37.5C 72.1667,37.5 71.8333,37.5 71.5,37.5C 70.8333,36.8333 70.1667,36.1667 69.5,35.5C 71.1788,35.7148 72.1788,35.0481 72.5,33.5 Z"/></g>
<g><path style="opacity:0.012" fill="#000000" d="M 94.5,33.5 C 94.8333,33.5 95.1667,33.5 95.5,33.5C 95.3147,34.1701 94.9813,34.1701 94.5,33.5 Z"/></g>
<g><path style="opacity:0.008" fill="#000000" d="M 93.5,34.5 C 93.8333,34.5 94.1667,34.5 94.5,34.5C 94.3147,35.1701 93.9813,35.1701 93.5,34.5 Z"/></g>
<g><path style="opacity:0.008" fill="#151515" d="M 145.5,33.5 C 145.833,33.5 146.167,33.5 146.5,33.5C 146.167,36.1667 145.833,36.1667 145.5,33.5 Z"/></g>
<g><path style="opacity:0.012" fill="#000000" d="M 93.5,35.5 C 92.8333,36.1667 92.8333,36.1667 93.5,35.5 Z"/></g>
<g><path style="opacity:0.012" fill="#000000" d="M 58.5,36.5 C 58.4891,39.0009 57.8224,39.1676 56.5,37C 57.0944,36.5357 57.7611,36.369 58.5,36.5 Z"/></g>
<g><path style="opacity:0.004" fill="#2b2b2b" d="M 98.5,35.5 C 99.525,35.8966 99.6917,36.5632 99,37.5C 98.5357,36.9056 98.369,36.2389 98.5,35.5 Z"/></g>
<g><path style="opacity:1" fill="#f8f7f7" d="M 203.5,35.5 C 207.115,37.0208 209.615,39.6875 211,43.5C 215.972,53.4571 213.805,61.2904 204.5,67C 191.051,72.2106 185.218,67.7106 187,53.5C 188.649,52.1155 189.816,50.4488 190.5,48.5C 192.159,44.8088 191.492,41.4755 188.5,38.5C 188.863,37.8165 189.196,37.1499 189.5,36.5C 194.23,36.7166 198.897,36.3833 203.5,35.5 Z"/></g>
<g><path style="opacity:0.016" fill="#3f3f3f" d="M 135.5,36.5 C 135.5,37.5 135.5,38.5 135.5,39.5C 134.167,38.5 134.167,37.5 135.5,36.5 Z"/></g>
<g><path style="opacity:0.016" fill="#353535" d="M 135.5,39.5 C 135.833,39.5 136.167,39.5 136.5,39.5C 136.167,43.5 135.833,43.5 135.5,39.5 Z"/></g>
<g><path style="opacity:0.02" fill="#000000" d="M 82.5,41.5 C 83.8333,42.1667 83.8333,42.1667 82.5,41.5 Z"/></g>
<g><path style="opacity:0.016" fill="#000000" d="M 81.5,42.5 C 81.8333,42.5 82.1667,42.5 82.5,42.5C 82.3147,43.1701 81.9813,43.1701 81.5,42.5 Z"/></g>
<g><path style="opacity:0.008" fill="#373737" d="M 104.5,41.5 C 104.5,42.1667 104.5,42.8333 104.5,43.5C 103.167,42.8333 103.167,42.1667 104.5,41.5 Z"/></g>
<g><path style="opacity:0.01" fill="#000000" d="M 79.5,44.5 C 79.5,44.1667 79.5,43.8333 79.5,43.5C 80.1667,43.5 80.8333,43.5 81.5,43.5C 81.1583,44.3382 80.4916,44.6716 79.5,44.5 Z"/></g>
<g><path style="opacity:0.02" fill="#656665" d="M 104.5,43.5 C 104.833,43.5 105.167,43.5 105.5,43.5C 105.315,44.1701 104.981,44.1701 104.5,43.5 Z"/></g>
<g><path style="opacity:0.995" fill="#7d7d7d" d="M 115.5,45.5 C 115.786,47.9327 116.452,47.9327 117.5,45.5C 120.129,44.0119 122.963,43.0119 126,42.5C 127.376,42.6842 128.209,43.3509 128.5,44.5C 126.326,44.7497 124.659,45.7497 123.5,47.5C 122.833,47.5 122.5,47.8333 122.5,48.5C 121.662,48.8417 121.328,49.5084 121.5,50.5C 120.833,50.5 120.5,50.8333 120.5,51.5C 119.662,51.8417 119.328,52.5084 119.5,53.5C 118.833,53.5 118.5,53.8333 118.5,54.5C 117.833,54.5 117.5,54.8333 117.5,55.5C 116.508,55.3284 115.842,55.6618 115.5,56.5C 114.508,56.3284 113.842,56.6618 113.5,57.5C 112.833,57.5 112.5,57.8333 112.5,58.5C 111.833,58.5 111.5,58.8333 111.5,59.5C 109.902,57.1433 108.902,54.4766 108.5,51.5C 108.768,49.901 108.434,48.5676 107.5,47.5C 107.771,45.6203 107.104,44.287 105.5,43.5C 105.672,42.5084 105.338,41.8417 104.5,41.5C 103.19,39.8523 101.857,38.1856 100.5,36.5C 101.365,35.4173 102.365,35.2506 103.5,36C 107.95,38.6193 111.95,41.7859 115.5,45.5 Z M 115.5,45.5 C 116.167,45.5 116.833,45.5 117.5,45.5C 116.452,47.9327 115.786,47.9327 115.5,45.5 Z"/></g>
<g><path style="opacity:0.004" fill="#2b2b2b" d="M 129.5,44.5 C 129.369,43.7611 129.536,43.0944 130,42.5C 130.692,43.4368 130.525,44.1034 129.5,44.5 Z"/></g>
<g><path style="opacity:0.008" fill="#000000" d="M 137.5,44.5 C 137.897,43.475 138.563,43.3083 139.5,44C 138.906,44.4643 138.239,44.631 137.5,44.5 Z"/></g>
<g><path style="opacity:1" fill="#d7d7d7" d="M 190.5,48.5 C 185.353,51.9299 182.853,50.5966 183,44.5C 187.836,41.179 190.336,42.5123 190.5,48.5 Z"/></g>
<g><path style="opacity:0.02" fill="#000000" d="M 78.5,44.5 C 78.8333,44.5 79.1667,44.5 79.5,44.5C 79.3147,45.1701 78.9813,45.1701 78.5,44.5 Z"/></g>
<g><path style="opacity:0.004" fill="#000000" d="M 128.5,44.5 C 128.833,44.5 129.167,44.5 129.5,44.5C 129.315,45.1701 128.981,45.1701 128.5,44.5 Z"/></g>
<g><path style="opacity:0.004" fill="#2b2b2b" d="M 106.5,47.5 C 105.475,47.1034 105.308,46.4368 106,45.5C 106.464,46.0944 106.631,46.7611 106.5,47.5 Z"/></g>
<g><path style="opacity:0.011" fill="#000000" d="M 241.5,50.5 C 241.343,49.1266 241.51,47.7932 242,46.5C 242.765,48.0657 242.598,49.3991 241.5,50.5 Z"/></g>
<g><path style="opacity:0.016" fill="#737373" d="M 106.5,47.5 C 106.833,47.5 107.167,47.5 107.5,47.5C 107.5,48.8333 107.5,50.1667 107.5,51.5C 106.566,50.4324 106.232,49.099 106.5,47.5 Z"/></g>
<g><path style="opacity:0.004" fill="#2b2b2b" d="M 123.5,47.5 C 125.55,48.3218 125.217,49.3218 122.5,50.5C 122.5,49.8333 122.5,49.1667 122.5,48.5C 123.167,48.5 123.5,48.1667 123.5,47.5 Z"/></g>
<g><path style="opacity:0.015" fill="#050505" d="M 71.5,48.5 C 71.5569,49.609 71.8902,50.609 72.5,51.5C 71.8826,51.6107 71.3826,51.944 71,52.5C 70.235,50.9343 70.4017,49.6009 71.5,48.5 Z"/></g>
<g><path style="opacity:0.016" fill="#3f403f" d="M 121.5,50.5 C 121.833,50.5 122.167,50.5 122.5,50.5C 122.315,51.1701 121.981,51.1701 121.5,50.5 Z"/></g>
<g><path style="opacity:0.004" fill="#000000" d="M 240.5,50.5 C 240.833,50.5 241.167,50.5 241.5,50.5C 241.315,51.1701 240.981,51.1701 240.5,50.5 Z"/></g>
<g><path style="opacity:0.008" fill="#000000" d="M 239.5,51.5 C 239.833,51.5 240.167,51.5 240.5,51.5C 240.315,52.1701 239.981,52.1701 239.5,51.5 Z"/></g>
<g><path style="opacity:0.012" fill="#000000" d="M 78.5,54.5 C 78.369,53.7611 78.5357,53.0944 79,52.5C 79.6917,53.4368 79.525,54.1034 78.5,54.5 Z"/></g>
<g><path style="opacity:0.004" fill="#2b2b2b" d="M 120.5,51.5 C 120.833,51.5 121.167,51.5 121.5,51.5C 121.672,52.4916 121.338,53.1583 120.5,53.5C 120.5,52.8333 120.5,52.1667 120.5,51.5 Z"/></g>
<g><path style="opacity:0.009" fill="#000000" d="M 235.5,53.5 C 235.5,53.1667 235.5,52.8333 235.5,52.5C 236.833,52.5 238.167,52.5 239.5,52.5C 238.432,53.4345 237.099,53.7678 235.5,53.5 Z"/></g>
<g><path style="opacity:0.004" fill="#000000" d="M 68.5,53.5 C 67.8333,54.1667 67.8333,54.1667 68.5,53.5 Z"/></g>
<g><path style="opacity:0.012" fill="#545554" d="M 119.5,53.5 C 119.833,53.5 120.167,53.5 120.5,53.5C 120.315,54.1701 119.981,54.1701 119.5,53.5 Z"/></g>
<g><path style="opacity:0.011" fill="#000000" d="M 231.5,53.5 C 232.833,53.5 234.167,53.5 235.5,53.5C 234.167,54.8333 232.833,54.8333 231.5,53.5 Z"/></g>
<g><path style="opacity:0.012" fill="#545554" d="M 118.5,54.5 C 118.833,54.5 119.167,54.5 119.5,54.5C 119.315,55.1701 118.981,55.1701 118.5,54.5 Z"/></g>
<g><path style="opacity:0.016" fill="#000000" d="M 75.5,55.5 C 74.8333,56.1667 74.8333,56.1667 75.5,55.5 Z"/></g>
<g><path style="opacity:0.012" fill="#545554" d="M 117.5,55.5 C 117.833,55.5 118.167,55.5 118.5,55.5C 118.315,56.1701 117.981,56.1701 117.5,55.5 Z"/></g>
<g><path style="opacity:0.012" fill="#000000" d="M 223.5,55.5 C 224.552,55.3505 225.552,55.5172 226.5,56C 224.901,57.7863 224.067,59.953 224,62.5C 223.503,60.1902 223.337,57.8568 223.5,55.5 Z"/></g>
<g><path style="opacity:0.004" fill="#2b2b2b" d="M 115.5,57.5 C 115.5,57.1667 115.5,56.8333 115.5,56.5C 116.167,56.5 116.833,56.5 117.5,56.5C 117.158,57.3382 116.492,57.6716 115.5,57.5 Z"/></g>
<g><path style="opacity:0.004" fill="#000000" d="M 128.5,56.5 C 129.833,57.1667 129.833,57.1667 128.5,56.5 Z"/></g>
<g><path style="opacity:0.012" fill="#000000" d="M 76.5,57.5 C 75.8333,58.1667 75.8333,58.1667 76.5,57.5 Z"/></g>
<g><path style="opacity:0.006" fill="#000000" d="M 80.5,59.5 C 80.369,58.7611 80.5357,58.0944 81,57.5C 81.6917,58.4368 81.525,59.1034 80.5,59.5 Z"/></g>
<g><path style="opacity:0.012" fill="#7e7e7e" d="M 107.5,51.5 C 107.833,51.5 108.167,51.5 108.5,51.5C 108.167,62.1667 107.833,62.1667 107.5,51.5 Z"/></g>
<g><path style="opacity:0.012" fill="#707070" d="M 113.5,58.5 C 113.5,58.1667 113.5,57.8333 113.5,57.5C 114.167,57.5 114.833,57.5 115.5,57.5C 115.158,58.3382 114.492,58.6716 113.5,58.5 Z"/></g>
<g><path style="opacity:0.02" fill="#989998" d="M 112.5,58.5 C 112.833,58.5 113.167,58.5 113.5,58.5C 113.315,59.1701 112.981,59.1701 112.5,58.5 Z"/></g>
<g><path style="opacity:0.004" fill="#000000" d="M 79.5,59.5 C 79.8333,59.5 80.1667,59.5 80.5,59.5C 80.3147,60.1701 79.9813,60.1701 79.5,59.5 Z"/></g>
<g><path style="opacity:0.012" fill="#a9aaa9" d="M 111.5,59.5 C 111.833,59.5 112.167,59.5 112.5,59.5C 112.315,60.1701 111.981,60.1701 111.5,59.5 Z"/></g>
<g><path style="opacity:0.008" fill="#000000" d="M 131.5,59.5 C 132.833,60.1667 132.833,60.1667 131.5,59.5 Z"/></g>
<g><path style="opacity:0.004" fill="#000000" d="M 79.5,60.5 C 79.1034,61.525 78.4368,61.6917 77.5,61C 78.0944,60.5357 78.7611,60.369 79.5,60.5 Z"/></g>
<g><path style="opacity:0.012" fill="#898989" d="M 111.5,60.5 C 111.103,61.525 110.437,61.6917 109.5,61C 110.094,60.5357 110.761,60.369 111.5,60.5 Z"/></g>
<g><path style="opacity:0.008" fill="#141414" d="M 130.5,61.5 C 131.573,62.2506 131.74,63.2506 131,64.5C 130.517,63.552 130.351,62.552 130.5,61.5 Z"/></g>
<g><path style="opacity:0.996" fill="#272727" d="M 129.5,77.5 C 128.596,78.209 128.263,79.209 128.5,80.5C 128.06,82.8439 127.06,84.8439 125.5,86.5C 124.167,84.5 122.5,82.8333 120.5,81.5C 120.5,80.8333 120.167,80.5 119.5,80.5C 117.574,78.7073 115.241,77.7073 112.5,77.5C 111.432,76.5655 110.099,76.2322 108.5,76.5C 107.596,75.791 107.263,74.791 107.5,73.5C 107.5,73.1667 107.5,72.8333 107.5,72.5C 111.804,71.8694 116.137,71.3694 120.5,71C 117.167,70.6667 113.833,70.3333 110.5,70C 114.152,69.5014 117.818,69.3347 121.5,69.5C 121.351,70.552 121.517,71.552 122,72.5C 123.199,67.101 125.699,62.4343 129.5,58.5C 128.357,64.6391 128.357,70.9725 129.5,77.5 Z"/></g>
<g><path style="opacity:0.012" fill="#000000" d="M 221.5,65.5 C 222.525,65.8966 222.692,66.5632 222,67.5C 221.536,66.9056 221.369,66.2389 221.5,65.5 Z"/></g>
<g><path style="opacity:0.999" fill="#8ac73f" d="M 104.5,68.5 C 104.5,69.1667 104.833,69.5 105.5,69.5C 105.932,70.7095 106.599,71.7095 107.5,72.5C 107.5,72.8333 107.5,73.1667 107.5,73.5C 87.1888,88.0678 73.1888,107.401 65.5,131.5C 64.8333,131.5 64.5,131.833 64.5,132.5C 43.8333,132.5 23.1667,132.5 2.5,132.5C 2.5,147.167 2.5,161.833 2.5,176.5C 2.16667,176.5 1.83333,176.5 1.5,176.5C 0.503891,161.676 0.170558,146.676 0.5,131.5C 1.97739,129.193 3.97739,127.36 6.5,126C 22.4965,125.5 38.4965,125.333 54.5,125.5C 54.3334,108.163 54.5001,90.8301 55,73.5C 55.786,70.4173 57.6193,68.2506 60.5,67C 74.1667,66.3333 87.8333,66.3333 101.5,67C 102.527,67.5133 103.527,68.0133 104.5,68.5 Z"/></g>
<g><path style="opacity:0.004" fill="#435a14" d="M 104.5,68.5 C 104.56,67.9569 104.893,67.6236 105.5,67.5C 106.773,68.2565 106.773,68.9232 105.5,69.5C 104.833,69.5 104.5,69.1667 104.5,68.5 Z"/></g>
<g><path style="opacity:0.008" fill="#000000" d="M 147.5,69.5 C 148.525,69.8966 148.692,70.5632 148,71.5C 147.536,70.9056 147.369,70.2389 147.5,69.5 Z"/></g>
<g><path style="opacity:0.997" fill="#bc0f12" d="M 185.5,75.5 C 185.5,76.8333 185.5,78.1667 185.5,79.5C 184.728,80.6935 183.728,81.6935 182.5,82.5C 181.5,82.8333 180.833,83.5 180.5,84.5C 178.833,85.8333 177.167,87.1667 175.5,88.5C 173.833,88.5 172.167,88.5 170.5,88.5C 170.945,85.72 170.945,83.0534 170.5,80.5C 171.035,78.7295 171.869,78.3961 173,79.5C 174.095,78.3066 174.928,76.9733 175.5,75.5C 176.338,75.1583 176.672,74.4916 176.5,73.5C 177.167,73.5 177.5,73.1667 177.5,72.5C 181.749,69.2831 184.416,70.2831 185.5,75.5 Z"/></g>
<g><path style="opacity:0.008" fill="#000000" d="M 217.5,71.5 C 218.713,72.4971 218.546,73.4971 217,74.5C 216.536,73.9056 216.369,73.2389 216.5,72.5C 217.167,72.5 217.5,72.1667 217.5,71.5 Z"/></g>
<g><path style="opacity:0.011" fill="#200a01" d="M 167.5,73.5 C 167.5,73.1667 167.5,72.8333 167.5,72.5C 170.5,72.5 173.5,72.5 176.5,72.5C 176.5,72.8333 176.5,73.1667 176.5,73.5C 175.662,73.8417 175.328,74.5084 175.5,75.5C 173.2,73.7982 170.533,73.1315 167.5,73.5 Z"/></g>
<g><path style="opacity:0.005" fill="#000000" d="M 130.5,77.5 C 130.343,76.1266 130.51,74.7932 131,73.5C 131.765,75.0657 131.598,76.3991 130.5,77.5 Z"/></g>
<g><path style="opacity:0.012" fill="#000000" d="M 167.5,73.5 C 162.015,74.6517 156.349,74.8184 150.5,74C 156.157,73.5006 161.824,73.3339 167.5,73.5 Z"/></g>
<g><path style="opacity:0.993" fill="#339f59" d="M 107.5,73.5 C 107.263,74.791 107.596,75.791 108.5,76.5C 109.568,77.4345 110.901,77.7678 112.5,77.5C 110.711,90.5912 109.878,103.925 110,117.5C 109.667,104.5 109.333,91.5 109,78.5C 108.798,92.2113 108.298,105.878 107.5,119.5C 106.508,119.328 105.842,119.662 105.5,120.5C 103.77,121.026 102.436,122.026 101.5,123.5C 100.833,123.5 100.5,123.833 100.5,124.5C 99.8333,124.5 99.5,124.833 99.5,125.5C 98.0937,125.973 97.427,126.973 97.5,128.5C 96.8333,128.5 96.5,128.833 96.5,129.5C 95.5,129.833 94.8333,130.5 94.5,131.5C 84.8333,131.5 75.1667,131.5 65.5,131.5C 73.1888,107.401 87.1888,88.0678 107.5,73.5 Z"/></g>
<g><path style="opacity:0.007" fill="#000000" d="M 212.5,76.5 C 214.793,77.3013 214.46,77.968 211.5,78.5C 211.5,78.1667 211.5,77.8333 211.5,77.5C 212.167,77.5 212.5,77.1667 212.5,76.5 Z"/></g>
<g><path style="opacity:0.008" fill="#141414" d="M 129.5,77.5 C 129.833,77.5 130.167,77.5 130.5,77.5C 130.737,78.791 130.404,79.791 129.5,80.5C 129.5,79.5 129.5,78.5 129.5,77.5 Z"/></g>
<g><path style="opacity:0.02" fill="#000000" d="M 210.5,78.5 C 210.833,78.5 211.167,78.5 211.5,78.5C 211.315,79.1701 210.981,79.1701 210.5,78.5 Z"/></g>
<g><path style="opacity:0.02" fill="#000000" d="M 209.5,79.5 C 209.833,79.5 210.167,79.5 210.5,79.5C 210.315,80.1701 209.981,80.1701 209.5,79.5 Z"/></g>
<g><path style="opacity:0.008" fill="#0c0c0c" d="M 119.5,80.5 C 120.167,80.5 120.5,80.8333 120.5,81.5C 119.503,82.7125 118.503,82.5458 117.5,81C 118.094,80.5357 118.761,80.369 119.5,80.5 Z"/></g>
<g><path style="opacity:0.02" fill="#000000" d="M 208.5,80.5 C 208.833,80.5 209.167,80.5 209.5,80.5C 209.315,81.1701 208.981,81.1701 208.5,80.5 Z"/></g>
<g><path style="opacity:0.02" fill="#000000" d="M 207.5,81.5 C 207.833,81.5 208.167,81.5 208.5,81.5C 208.315,82.1701 207.981,82.1701 207.5,81.5 Z"/></g>
<g><path style="opacity:0.008" fill="#171717" d="M 128.5,80.5 C 128.833,80.5 129.167,80.5 129.5,80.5C 129.167,87.1667 128.833,87.1667 128.5,80.5 Z"/></g>
<g><path style="opacity:0.02" fill="#000000" d="M 206.5,82.5 C 206.833,82.5 207.167,82.5 207.5,82.5C 207.315,83.1701 206.981,83.1701 206.5,82.5 Z"/></g>
<g><path style="opacity:0.014" fill="#050505" d="M 192.5,82.5 C 193.338,82.8417 193.672,83.5084 193.5,84.5C 192.662,84.8417 192.328,85.5084 192.5,86.5C 192.167,86.5 191.833,86.5 191.5,86.5C 191.5,85.8333 191.167,85.5 190.5,85.5C 190.5,85.1667 190.5,84.8333 190.5,84.5C 191.167,84.5 191.5,84.1667 191.5,83.5C 192.167,83.5 192.5,83.1667 192.5,82.5 Z"/></g>
<g><path style="opacity:0.02" fill="#000000" d="M 205.5,83.5 C 205.833,83.5 206.167,83.5 206.5,83.5C 206.315,84.1701 205.981,84.1701 205.5,83.5 Z"/></g>
<g><path style="opacity:0.02" fill="#000000" d="M 204.5,84.5 C 204.833,84.5 205.167,84.5 205.5,84.5C 205.315,85.1701 204.981,85.1701 204.5,84.5 Z"/></g>
<g><path style="opacity:0.013" fill="#000000" d="M 189.5,85.5 C 189.833,85.5 190.167,85.5 190.5,85.5C 191.167,85.5 191.5,85.8333 191.5,86.5C 191.5,86.8333 191.5,87.1667 191.5,87.5C 190.833,87.5 190.5,87.8333 190.5,88.5C 189.662,88.8417 189.328,89.5084 189.5,90.5C 189.167,90.5 188.833,90.5 188.5,90.5C 188.5,89.8333 188.167,89.5 187.5,89.5C 187.5,89.1667 187.5,88.8333 187.5,88.5C 188.906,88.0269 189.573,87.0269 189.5,85.5 Z"/></g>
<g><path style="opacity:0.02" fill="#000000" d="M 203.5,85.5 C 203.833,85.5 204.167,85.5 204.5,85.5C 204.315,86.1701 203.981,86.1701 203.5,85.5 Z"/></g>
<g><path style="opacity:0.008" fill="#000000" d="M 125.5,86.5 C 125.5,86.8333 125.5,87.1667 125.5,87.5C 124.83,87.0187 124.83,86.6853 125.5,86.5 Z"/></g>
<g><path style="opacity:0.02" fill="#000000" d="M 202.5,86.5 C 202.833,86.5 203.167,86.5 203.5,86.5C 203.315,87.1701 202.981,87.1701 202.5,86.5 Z"/></g>
<g><path style="opacity:0.008" fill="#000000" d="M 125.5,87.5 C 126.833,88.1667 126.833,88.1667 125.5,87.5 Z"/></g>
<g><path style="opacity:0.02" fill="#000000" d="M 201.5,87.5 C 201.833,87.5 202.167,87.5 202.5,87.5C 202.315,88.1701 201.981,88.1701 201.5,87.5 Z"/></g>
<g><path style="opacity:0.02" fill="#000000" d="M 200.5,88.5 C 200.833,88.5 201.167,88.5 201.5,88.5C 201.315,89.1701 200.981,89.1701 200.5,88.5 Z"/></g>
<g><path style="opacity:0.009" fill="#371003" d="M 175.5,88.5 C 176.492,88.3284 177.158,88.6618 177.5,89.5C 176.662,89.8417 176.328,90.5084 176.5,91.5C 175.833,91.5 175.5,91.8333 175.5,92.5C 174.17,91.1679 172.503,90.3345 170.5,90C 172.382,89.8019 174.048,89.3019 175.5,88.5 Z"/></g>
<g><path style="opacity:0.013" fill="#000000" d="M 186.5,89.5 C 186.833,89.5 187.167,89.5 187.5,89.5C 188.167,89.5 188.5,89.8333 188.5,90.5C 188.5,90.8333 188.5,91.1667 188.5,91.5C 187.662,91.8417 187.328,92.5084 187.5,93.5C 187.167,93.5 186.833,93.5 186.5,93.5C 186.5,92.8333 186.167,92.5 185.5,92.5C 185.5,92.1667 185.5,91.8333 185.5,91.5C 186.338,91.1583 186.672,90.4916 186.5,89.5 Z"/></g>
<g><path style="opacity:0.008" fill="#000000" d="M 199.5,89.5 C 199.833,89.5 200.167,89.5 200.5,89.5C 199.968,92.4596 199.301,92.7929 198.5,90.5C 199.167,90.5 199.5,90.1667 199.5,89.5 Z"/></g>
<g><path style="opacity:0.01" fill="#000000" d="M 184.5,92.5 C 184.833,92.5 185.167,92.5 185.5,92.5C 186.167,92.5 186.5,92.8333 186.5,93.5C 186.158,94.3382 185.492,94.6716 184.5,94.5C 184.5,93.8333 184.5,93.1667 184.5,92.5 Z"/></g>
<g><path style="opacity:0.009" fill="#000000" d="M 195.5,94.5 C 196.715,95.779 196.382,96.779 194.5,97.5C 194.5,96.8333 194.5,96.1667 194.5,95.5C 195.167,95.5 195.5,95.1667 195.5,94.5 Z"/></g>
<g><path style="opacity:0.011" fill="#000000" d="M 182.5,95.5 C 183.906,95.9731 184.573,96.9731 184.5,98.5C 184.167,98.5 183.833,98.5 183.5,98.5C 183.5,97.8333 183.167,97.5 182.5,97.5C 182.5,96.8333 182.5,96.1667 182.5,95.5 Z"/></g>
<g><path style="opacity:0.013" fill="#000000" d="M 181.5,97.5 C 181.833,97.5 182.167,97.5 182.5,97.5C 183.167,97.5 183.5,97.8333 183.5,98.5C 183.5,99.1667 183.5,99.8333 183.5,100.5C 183.167,100.5 182.833,100.5 182.5,100.5C 182.5,99.8333 182.167,99.5 181.5,99.5C 181.5,98.8333 181.5,98.1667 181.5,97.5 Z"/></g>
<g><path style="opacity:0.02" fill="#000000" d="M 193.5,97.5 C 193.833,97.5 194.167,97.5 194.5,97.5C 194.315,98.1701 193.981,98.1701 193.5,97.5 Z"/></g>
<g><path style="opacity:0.012" fill="#000000" d="M 192.5,98.5 C 192.833,98.5 193.167,98.5 193.5,98.5C 193.672,99.4916 193.338,100.158 192.5,100.5C 192.5,99.8333 192.5,99.1667 192.5,98.5 Z"/></g>
<g><path style="opacity:0.012" fill="#000000" d="M 180.5,99.5 C 180.833,99.5 181.167,99.5 181.5,99.5C 182.167,99.5 182.5,99.8333 182.5,100.5C 182.5,101.167 182.5,101.833 182.5,102.5C 182.167,102.5 181.833,102.5 181.5,102.5C 181.5,101.833 181.167,101.5 180.5,101.5C 180.5,100.833 180.5,100.167 180.5,99.5 Z"/></g>
<g><path style="opacity:0.016" fill="#000000" d="M 191.5,100.5 C 191.833,100.5 192.167,100.5 192.5,100.5C 192.315,101.17 191.981,101.17 191.5,100.5 Z"/></g>
<g><path style="opacity:0.013" fill="#000000" d="M 179.5,101.5 C 179.833,101.5 180.167,101.5 180.5,101.5C 181.167,101.5 181.5,101.833 181.5,102.5C 181.5,103.167 181.5,103.833 181.5,104.5C 181.167,104.5 180.833,104.5 180.5,104.5C 180.5,103.833 180.167,103.5 179.5,103.5C 179.5,102.833 179.5,102.167 179.5,101.5 Z"/></g>
<g><path style="opacity:0.01" fill="#000000" d="M 190.5,101.5 C 190.833,101.5 191.167,101.5 191.5,101.5C 191.672,102.492 191.338,103.158 190.5,103.5C 190.5,102.833 190.5,102.167 190.5,101.5 Z"/></g>
<g><path style="opacity:0.01" fill="#000000" d="M 178.5,103.5 C 178.833,103.5 179.167,103.5 179.5,103.5C 180.167,103.5 180.5,103.833 180.5,104.5C 180.5,105.5 180.5,106.5 180.5,107.5C 180.167,107.5 179.833,107.5 179.5,107.5C 179.672,106.508 179.338,105.842 178.5,105.5C 178.5,104.833 178.5,104.167 178.5,103.5 Z"/></g>
<g><path style="opacity:0.02" fill="#000000" d="M 189.5,103.5 C 189.833,103.5 190.167,103.5 190.5,103.5C 190.315,104.17 189.981,104.17 189.5,103.5 Z"/></g>
<g><path style="opacity:0.008" fill="#000000" d="M 188.5,104.5 C 188.833,104.5 189.167,104.5 189.5,104.5C 189.672,105.492 189.338,106.158 188.5,106.5C 188.5,105.833 188.5,105.167 188.5,104.5 Z"/></g>
<g><path style="opacity:0.012" fill="#000000" d="M 177.5,105.5 C 177.833,105.5 178.167,105.5 178.5,105.5C 178.328,106.492 178.662,107.158 179.5,107.5C 179.5,108.167 179.5,108.833 179.5,109.5C 179.167,109.5 178.833,109.5 178.5,109.5C 178.5,108.833 178.167,108.5 177.5,108.5C 177.5,107.5 177.5,106.5 177.5,105.5 Z"/></g>
<g><path style="opacity:0.014" fill="#000000" d="M 187.5,106.5 C 187.833,106.5 188.167,106.5 188.5,106.5C 188.672,107.492 188.338,108.158 187.5,108.5C 187.5,107.833 187.5,107.167 187.5,106.5 Z"/></g>
<g><path style="opacity:0.011" fill="#000000" d="M 176.5,108.5 C 176.833,108.5 177.167,108.5 177.5,108.5C 178.167,108.5 178.5,108.833 178.5,109.5C 178.5,110.5 178.5,111.5 178.5,112.5C 178.167,112.5 177.833,112.5 177.5,112.5C 177.5,111.833 177.167,111.5 176.5,111.5C 176.5,110.5 176.5,109.5 176.5,108.5 Z"/></g>
<g><path style="opacity:0.01" fill="#000000" d="M 186.5,108.5 C 186.833,108.5 187.167,108.5 187.5,108.5C 187.672,109.492 187.338,110.158 186.5,110.5C 186.5,109.833 186.5,109.167 186.5,108.5 Z"/></g>
<g><path style="opacity:0.012" fill="#000000" d="M 164.5,110.5 C 165.598,111.601 165.765,112.934 165,114.5C 164.51,113.207 164.343,111.873 164.5,110.5 Z"/></g>
<g><path style="opacity:0.008" fill="#000000" d="M 185.5,110.5 C 185.833,110.5 186.167,110.5 186.5,110.5C 186.737,111.791 186.404,112.791 185.5,113.5C 185.5,112.5 185.5,111.5 185.5,110.5 Z"/></g>
<g><path style="opacity:0.013" fill="#080606" d="M 175.5,111.5 C 175.833,111.5 176.167,111.5 176.5,111.5C 177.167,111.5 177.5,111.833 177.5,112.5C 177.5,113.5 177.5,114.5 177.5,115.5C 176.566,116.568 176.232,117.901 176.5,119.5C 175.539,121.265 175.205,123.265 175.5,125.5C 174.833,130.5 174.167,135.5 173.5,140.5C 173.5,134.167 173.5,127.833 173.5,121.5C 174.461,119.735 174.795,117.735 174.5,115.5C 175.434,114.432 175.768,113.099 175.5,111.5 Z"/></g>
<g><path style="opacity:0.014" fill="#000000" d="M 184.5,113.5 C 184.833,113.5 185.167,113.5 185.5,113.5C 185.672,114.492 185.338,115.158 184.5,115.5C 184.5,114.833 184.5,114.167 184.5,113.5 Z"/></g>
<g><path style="opacity:0.011" fill="#000000" d="M 163.5,115.5 C 164.634,117.966 164.801,120.633 164,123.5C 163.503,120.854 163.336,118.187 163.5,115.5 Z"/></g>
<g><path style="opacity:0.009" fill="#000000" d="M 183.5,115.5 C 183.833,115.5 184.167,115.5 184.5,115.5C 184.737,116.791 184.404,117.791 183.5,118.5C 183.5,117.5 183.5,116.5 183.5,115.5 Z"/></g>
<g><path style="opacity:0.004" fill="#00ff00" d="M 108.5,118.5 C 109.833,119.167 109.833,119.167 108.5,118.5 Z"/></g>
<g><path style="opacity:0.009" fill="#000000" d="M 182.5,118.5 C 182.833,118.5 183.167,118.5 183.5,118.5C 183.768,120.099 183.434,121.432 182.5,122.5C 182.5,121.167 182.5,119.833 182.5,118.5 Z"/></g>
<g><path style="opacity:0.004" fill="#00ff00" d="M 107.5,119.5 C 107.833,119.5 108.167,119.5 108.5,119.5C 108.315,120.17 107.981,120.17 107.5,119.5 Z"/></g>
<g><path style="opacity:0.004" fill="#32e948" d="M 105.5,120.5 C 106.167,120.5 106.833,120.5 107.5,120.5C 106.833,121.833 106.167,121.833 105.5,120.5 Z"/></g>
<g><path style="opacity:0.01" fill="#000000" d="M 181.5,122.5 C 181.833,122.5 182.167,122.5 182.5,122.5C 182.784,124.415 182.451,126.081 181.5,127.5C 181.5,125.833 181.5,124.167 181.5,122.5 Z"/></g>
<g><path style="opacity:0.012" fill="#9cb34e" d="M 52.5,73.5 C 53.4966,90.3251 53.8299,107.325 53.5,124.5C 37.8298,124.667 22.1631,124.5 6.5,124C 21.8297,123.5 37.163,123.333 52.5,123.5C 52.5,106.833 52.5,90.1667 52.5,73.5 Z"/></g>
<g><path style="opacity:0.004" fill="#33d776" d="M 101.5,123.5 C 102.239,123.369 102.906,123.536 103.5,124C 102.333,125.167 101.167,126.333 100,127.5C 99.5357,126.906 99.369,126.239 99.5,125.5C 100.167,125.5 100.5,125.167 100.5,124.5C 101.167,124.5 101.5,124.167 101.5,123.5 Z"/></g>
<g><path style="opacity:0.004" fill="#000000" d="M 162.5,124.5 C 163.525,124.897 163.692,125.563 163,126.5C 162.536,125.906 162.369,125.239 162.5,124.5 Z"/></g>
<g><path style="opacity:0.008" fill="#2f7c52" d="M 105.5,126.5 C 104.833,126.5 104.5,126.833 104.5,127.5C 103.833,127.5 103.5,127.833 103.5,128.5C 102.833,128.5 102.5,128.833 102.5,129.5C 102.167,129.5 101.833,129.5 101.5,129.5C 101.942,126.668 103.275,125.668 105.5,126.5 Z"/></g>
<g><path style="opacity:0.014" fill="#000000" d="M 180.5,127.5 C 180.833,127.5 181.167,127.5 181.5,127.5C 181.167,148.833 180.833,148.833 180.5,127.5 Z"/></g>
<g><path style="opacity:0.008" fill="#2ada6a" d="M 97.5,128.5 C 98.7079,129.234 100.041,129.567 101.5,129.5C 101.5,129.833 101.5,130.167 101.5,130.5C 99.5853,130.784 97.9187,130.451 96.5,129.5C 97.1667,129.5 97.5,129.167 97.5,128.5 Z"/></g>
<g><path style="opacity:0.016" fill="#abd436" d="M -0.5,129.5 C 0.338246,129.842 0.67158,130.508 0.5,131.5C 0.166667,131.5 -0.166667,131.5 -0.5,131.5C -0.5,130.833 -0.5,130.167 -0.5,129.5 Z"/></g>
<g><path style="opacity:1" fill="#28ce57" d="M 65.5,131.5 C 75.1667,131.5 84.8333,131.5 94.5,131.5C 96.8333,131.5 99.1667,131.5 101.5,131.5C 121.167,131.5 140.833,131.5 160.5,131.5C 160.5,146.833 160.5,162.167 160.5,177.5C 132.833,177.5 105.167,177.5 77.5,177.5C 76.8333,177.5 76.5,177.833 76.5,178.5C 75.8333,178.5 75.5,178.833 75.5,179.5C 73.283,178.631 70.9496,178.298 68.5,178.5C 46.3396,177.503 24.0062,177.169 1.5,177.5C 1.5,177.167 1.5,176.833 1.5,176.5C 1.83333,176.5 2.16667,176.5 2.5,176.5C 10.661,176.17 18.4944,174.503 26,171.5C 26.2387,170.212 25.7387,169.212 24.5,168.5C 25.9986,167.322 26.9986,165.655 27.5,163.5C 28.8064,164.912 29.6397,166.579 30,168.5C 31,166.833 32,165.167 33,163.5C 33.4709,165.246 34.1376,166.913 35,168.5C 35.4298,165.808 35.2631,163.141 34.5,160.5C 35.793,161.842 36.6264,163.509 37,165.5C 37.1862,162.964 37.6862,160.631 38.5,158.5C 38.5,161.833 38.5,165.167 38.5,168.5C 43.443,168.712 44.1097,167.712 40.5,165.5C 43.1667,164.167 43.1667,162.833 40.5,161.5C 41.325,160.614 42.325,160.281 43.5,160.5C 44.1667,159.833 44.8333,159.167 45.5,158.5C 45.5,161.833 45.5,165.167 45.5,168.5C 49.841,169.337 52.5076,167.67 53.5,163.5C 52.5564,159.89 50.2231,158.223 46.5,158.5C 48.2941,156.203 50.2941,154.037 52.5,152C 50.7444,151.798 49.0777,151.298 47.5,150.5C 47.6236,149.893 47.9569,149.56 48.5,149.5C 50.6934,150.797 53.0268,150.797 55.5,149.5C 54.5,148.833 53.5,148.167 52.5,147.5C 52.6236,146.893 52.9569,146.56 53.5,146.5C 53.7352,147.097 54.2352,147.43 55,147.5C 56.0111,146.944 56.8444,146.278 57.5,145.5C 58.144,152.109 58.8106,152.109 59.5,145.5C 59.4439,143.36 58.7773,141.694 57.5,140.5C 61.1777,139.148 63.511,136.481 64.5,132.5C 64.5,131.833 64.8333,131.5 65.5,131.5 Z"/></g>
<g><path style="opacity:1" fill="#47db50" d="M 64.5,132.5 C 63.511,136.481 61.1777,139.148 57.5,140.5C 57.5,142.167 57.5,143.833 57.5,145.5C 56.8444,146.278 56.0111,146.944 55,147.5C 54.2352,147.43 53.7352,147.097 53.5,146.5C 53.8769,144.742 54.5435,143.075 55.5,141.5C 53.1667,140.167 50.8333,140.167 48.5,141.5C 49.7287,142.281 51.062,142.781 52.5,143C 51.2668,145.314 49.9334,147.481 48.5,149.5C 47.9569,149.56 47.6236,149.893 47.5,150.5C 49.0777,151.298 50.7444,151.798 52.5,152C 50.2941,154.037 48.2941,156.203 46.5,158.5C 46.1667,158.5 45.8333,158.5 45.5,158.5C 44.8333,159.167 44.1667,159.833 43.5,160.5C 42.4479,158.744 40.7812,158.077 38.5,158.5C 37.6862,160.631 37.1862,162.964 37,165.5C 36.6264,163.509 35.793,161.842 34.5,160.5C 34.6309,159.624 34.2975,158.957 33.5,158.5C 32.316,160.046 31.316,161.713 30.5,163.5C 29.316,161.954 28.316,160.287 27.5,158.5C 26.0761,161.721 25.0761,165.055 24.5,168.5C 25.7387,169.212 26.2387,170.212 26,171.5C 18.4944,174.503 10.661,176.17 2.5,176.5C 2.5,161.833 2.5,147.167 2.5,132.5C 23.1667,132.5 43.8333,132.5 64.5,132.5 Z"/></g>
<g><path style="opacity:0.008" fill="#218a83" d="M 165.5,135.5 C 164.906,148.982 164.24,162.315 163.5,175.5C 163.829,161.323 163.496,147.323 162.5,133.5C 162.687,131.436 163.187,129.436 164,127.5C 164.183,130.365 164.683,133.031 165.5,135.5 Z"/></g>
<g><path style="opacity:1" fill="#0a1507" d="M 8.5,140.5 C 9.94316,141.335 10.9432,142.668 11.5,144.5C 12.4147,143.672 13.0814,142.672 13.5,141.5C 14.365,140.417 15.365,140.251 16.5,141C 12.673,143.905 12.673,146.905 16.5,150C 14.2484,149.95 12.5818,148.784 11.5,146.5C 10.8333,147.833 10.1667,149.167 9.5,150.5C 8.51298,147.232 8.17964,143.898 8.5,140.5 Z"/></g>
<g><path style="opacity:1" fill="#071005" d="M 38.5,140.5 C 46.4863,139.998 48.4863,143.165 44.5,150C 39.6233,151.394 36.9566,149.561 36.5,144.5C 36.7517,142.927 37.4183,141.594 38.5,140.5 Z"/></g>
<g><path style="opacity:1" fill="#071307" d="M 68.5,140.5 C 74.2611,140.709 74.5945,141.542 69.5,143C 67.5721,147.27 68.7387,148.77 73,147.5C 73.4828,148.448 73.6495,149.448 73.5,150.5C 66.5562,149.946 64.8895,146.613 68.5,140.5 Z"/></g>
<g><path style="opacity:1" fill="#020a02" d="M 77.5,140.5 C 84.6275,140.706 86.2942,143.873 82.5,150C 76.4983,150.993 74.3317,148.493 76,142.5C 76.7172,141.956 77.2172,141.289 77.5,140.5 Z"/></g>
<g><path style="opacity:1" fill="#09190a" d="M 113.5,140.5 C 115.369,142.635 116.036,145.302 115.5,148.5C 116.822,148.67 117.989,148.337 119,147.5C 119.186,145.1 119.686,142.766 120.5,140.5C 122.006,143.941 121.673,147.108 119.5,150C 117.833,150.667 116.167,150.667 114.5,150C 113.549,146.943 113.216,143.777 113.5,140.5 Z"/></g>
<g><path style="opacity:1" fill="#051205" d="M 146.5,141.5 C 146.56,140.957 146.893,140.624 147.5,140.5C 148.5,141.167 149.5,141.833 150.5,142.5C 151.532,140.96 152.865,140.46 154.5,141C 152.282,143.75 150.949,146.917 150.5,150.5C 150.104,146.953 148.771,143.953 146.5,141.5 Z"/></g>
<g><path style="opacity:1" fill="#081405" d="M 21.5,140.5 C 22.4959,140.414 23.3292,140.748 24,141.5C 25.0375,144.405 26.2042,147.239 27.5,150C 25.8217,149.888 24.155,149.388 22.5,148.5C 21.3279,148.919 20.3279,149.585 19.5,150.5C 19.1667,150 18.8333,149.5 18.5,149C 19.8031,146.256 20.8031,143.423 21.5,140.5 Z"/></g>
<g><path style="opacity:1" fill="#0a1708" d="M 29.5,140.5 C 34.443,140.288 35.1097,141.288 31.5,143.5C 34.4176,145.008 35.0843,147.175 33.5,150C 27.7666,150.138 27.4333,149.304 32.5,147.5C 30.2623,145.742 29.2623,143.408 29.5,140.5 Z"/></g>
<g><path style="opacity:1" fill="#0a1607" d="M 53.5,146.5 C 52.9569,146.56 52.6236,146.893 52.5,147.5C 53.5,148.167 54.5,148.833 55.5,149.5C 53.0268,150.797 50.6934,150.797 48.5,149.5C 49.9334,147.481 51.2668,145.314 52.5,143C 51.062,142.781 49.7287,142.281 48.5,141.5C 50.8333,140.167 53.1667,140.167 55.5,141.5C 54.5435,143.075 53.8769,144.742 53.5,146.5 Z"/></g>
<g><path style="opacity:1" fill="#0b1a0b" d="M 138.5,140.5 C 140.604,140.201 142.604,140.534 144.5,141.5C 143.047,144.298 142.047,147.298 141.5,150.5C 140.796,147.005 139.796,143.672 138.5,140.5 Z"/></g>
<g><path style="opacity:0.998" fill="#0b190b" d="M 87.5,140.5 C 88.5,140.5 89.5,140.5 90.5,140.5C 90.8835,144.942 91.8835,145.276 93.5,141.5C 94.5,140.167 95.5,140.167 96.5,141.5C 97.7485,144.494 97.7485,147.494 96.5,150.5C 95.6666,142.785 94.1666,142.785 92,150.5C 90.3289,143.979 88.8289,143.979 87.5,150.5C 87.0244,147.26 87.0244,143.927 87.5,140.5 Z"/></g>
<g><path style="opacity:1" fill="#103717" d="M 135.5,140.5 C 136.777,141.694 137.444,143.36 137.5,145.5C 137.167,147.167 136.833,148.833 136.5,150.5C 135.513,147.232 135.18,143.898 135.5,140.5 Z"/></g>
<g><path style="opacity:1" fill="#319b37" d="M 21.5,143.5 C 22.5862,143.62 23.2528,144.287 23.5,145.5C 23.1667,146.167 22.8333,146.833 22.5,147.5C 21.5713,146.311 21.238,144.978 21.5,143.5 Z"/></g>
<g><path style="opacity:1" fill="#40c548" d="M 39.5,142.5 C 44.1585,142.015 45.4919,143.848 43.5,148C 38.7282,148.81 37.3948,146.977 39.5,142.5 Z"/></g>
<g><path style="opacity:1" fill="#26c454" d="M 78.5,142.5 C 82.35,142.701 83.35,144.534 81.5,148C 76.7217,148.073 75.7217,146.24 78.5,142.5 Z"/></g>
<g><path style="opacity:1" fill="#030e04" d="M 101.5,140.5 C 103.516,141.486 104.849,143.153 105.5,145.5C 106.316,143.713 107.316,142.046 108.5,140.5C 110.35,143.615 110.85,146.948 110,150.5C 109.138,148.913 108.471,147.246 108,145.5C 107.077,146.759 106.243,148.092 105.5,149.5C 103.407,144.205 101.907,144.538 101,150.5C 100.612,147.151 100.779,143.817 101.5,140.5 Z"/></g>
<g><path style="opacity:1" fill="#030f04" d="M 123.5,140.5 C 126.385,141.545 128.552,143.545 130,146.5C 130.192,144.423 130.692,142.423 131.5,140.5C 132.833,143.833 132.833,147.167 131.5,150.5C 129.142,148.976 127.309,146.976 126,144.5C 125.808,146.577 125.308,148.577 124.5,150.5C 123.513,147.232 123.18,143.898 123.5,140.5 Z"/></g>
<g><path style="opacity:1" fill="#103315" d="M 57.5,140.5 C 58.7773,141.694 59.4439,143.36 59.5,145.5C 58.8106,152.109 58.144,152.109 57.5,145.5C 57.5,143.833 57.5,142.167 57.5,140.5 Z"/></g>
<g><path style="opacity:1" fill="#0f200e" d="M 38.5,158.5 C 40.7812,158.077 42.4479,158.744 43.5,160.5C 42.325,160.281 41.325,160.614 40.5,161.5C 43.1667,162.833 43.1667,164.167 40.5,165.5C 44.1097,167.712 43.443,168.712 38.5,168.5C 38.5,165.167 38.5,161.833 38.5,158.5 Z"/></g>
<g><path style="opacity:1" fill="#081609" d="M 45.5,158.5 C 45.8333,158.5 46.1667,158.5 46.5,158.5C 50.2231,158.223 52.5564,159.89 53.5,163.5C 52.5076,167.67 49.841,169.337 45.5,168.5C 45.5,165.167 45.5,161.833 45.5,158.5 Z"/></g>
<g><path style="opacity:1" fill="#010801" d="M 55.5,158.5 C 56.7773,159.694 57.4439,161.36 57.5,163.5C 57.1667,165.167 56.8333,166.833 56.5,168.5C 55.513,165.232 55.1796,161.898 55.5,158.5 Z"/></g>
<g><path style="opacity:1" fill="#040d04" d="M 62.5,158.5 C 66.4557,159.053 66.4557,159.886 62.5,161C 60.6185,164.976 61.9518,167.142 66.5,167.5C 60.5342,169.031 58.3675,166.698 60,160.5C 60.9947,159.934 61.828,159.267 62.5,158.5 Z"/></g>
<g><path style="opacity:0.999" fill="#040f04" d="M 78.5,158.5 C 80.369,160.635 81.0356,163.302 80.5,166.5C 81.675,166.281 82.675,166.614 83.5,167.5C 81.9547,168.452 80.288,168.785 78.5,168.5C 78.5,165.167 78.5,161.833 78.5,158.5 Z"/></g>
<g><path style="opacity:0.999" fill="#030c04" d="M 91.5,158.5 C 95.9707,158.672 96.3041,159.506 92.5,161C 90.7269,164.384 91.7269,166.551 95.5,167.5C 90.0497,168.527 88.2163,166.193 90,160.5C 90.7172,159.956 91.2172,159.289 91.5,158.5 Z"/></g>
<g><path style="opacity:1" fill="#061407" d="M 132.5,158.5 C 137.443,158.288 138.11,159.288 134.5,161.5C 138.5,162.833 138.5,164.167 134.5,165.5C 138.11,167.712 137.443,168.712 132.5,168.5C 132.5,165.167 132.5,161.833 132.5,158.5 Z"/></g>
<g><path style="opacity:1" fill="#030e04" d="M 105.5,158.5 C 108.298,159.706 110.465,161.706 112,164.5C 112.192,162.423 112.692,160.423 113.5,158.5C 114.487,161.768 114.82,165.102 114.5,168.5C 111.899,167.72 109.899,166.054 108.5,163.5C 107.833,165.167 107.167,166.833 106.5,168.5C 105.513,165.232 105.18,161.898 105.5,158.5 Z"/></g>
<g><path style="opacity:1" fill="#030d03" d="M 116.5,158.5 C 118.288,158.215 119.955,158.548 121.5,159.5C 119.898,162.237 119.064,165.237 119,168.5C 118.778,164.944 117.944,161.611 116.5,158.5 Z"/></g>
<g><path style="opacity:1" fill="#081909" d="M 123.5,158.5 C 126.044,158.104 128.211,158.771 130,160.5C 130.711,162.367 130.211,163.867 128.5,165C 130.691,169.401 130.025,169.567 126.5,165.5C 125.833,166.5 125.167,167.5 124.5,168.5C 123.513,165.232 123.18,161.898 123.5,158.5 Z"/></g>
<g><path style="opacity:1" fill="#1c9a41" d="M 125.5,160.5 C 128.957,160.667 129.29,161.667 126.5,163.5C 125.614,162.675 125.281,161.675 125.5,160.5 Z"/></g>
<g><path style="opacity:1" fill="#23b94f" d="M 47.5,160.5 C 50.9656,161.109 51.9656,162.942 50.5,166C 49.552,166.483 48.552,166.649 47.5,166.5C 47.5,164.5 47.5,162.5 47.5,160.5 Z"/></g>
<g><path style="opacity:1" fill="#040f03" d="M 34.5,160.5 C 35.2631,163.141 35.4298,165.808 35,168.5C 34.1376,166.913 33.4709,165.246 33,163.5C 32,165.167 31,166.833 30,168.5C 29.6397,166.579 28.8064,164.912 27.5,163.5C 26.9986,165.655 25.9986,167.322 24.5,168.5C 25.0761,165.055 26.0761,161.721 27.5,158.5C 28.316,160.287 29.316,161.954 30.5,163.5C 31.316,161.713 32.316,160.046 33.5,158.5C 34.2975,158.957 34.6309,159.624 34.5,160.5 Z"/></g>
<g><path style="opacity:1" fill="#0d220f" d="M 98.5,158.5 C 103.443,158.288 104.11,159.288 100.5,161.5C 103.167,162.833 103.167,164.167 100.5,165.5C 104.11,167.712 103.443,168.712 98.5,168.5C 98.5,165.167 98.5,161.833 98.5,158.5 Z"/></g>
<g><path style="opacity:0.01" fill="#dddddd" d="M 208.5,164.5 C 209.251,163.427 210.251,163.26 211.5,164C 210.552,164.483 209.552,164.649 208.5,164.5 Z"/></g>
<g><path style="opacity:0.004" fill="#000000" d="M 242.5,163.5 C 243.833,164.167 243.833,164.167 242.5,163.5 Z"/></g>
<g><path style="opacity:1" fill="#041005" d="M 71.5,158.5 C 72.4959,158.414 73.3292,158.748 74,159.5C 75.3665,162.564 75.8665,165.564 75.5,168.5C 74.6721,167.585 73.6721,166.919 72.5,166.5C 70.845,167.388 69.1783,167.888 67.5,168C 68.9775,164.88 70.3108,161.714 71.5,158.5 Z"/></g>
<g><path style="opacity:1" fill="#167e34" d="M 71.5,161.5 C 73.1765,162.183 73.8432,163.517 73.5,165.5C 72.325,165.719 71.325,165.386 70.5,164.5C 71.1272,163.583 71.4606,162.583 71.5,161.5 Z"/></g>
<g><path style="opacity:0.008" fill="#000000" d="M 241.5,164.5 C 241.833,164.5 242.167,164.5 242.5,164.5C 242.315,165.17 241.981,165.17 241.5,164.5 Z"/></g>
<g><path style="opacity:0.004" fill="#000000" d="M 179.5,165.5 C 178.833,166.167 178.833,166.167 179.5,165.5 Z"/></g>
<g><path style="opacity:0.006" fill="#fefffe" d="M 206.5,165.5 C 207.598,166.601 207.765,167.934 207,169.5C 206.51,168.207 206.343,166.873 206.5,165.5 Z"/></g>
<g><path style="opacity:0.012" fill="#000000" d="M 240.5,165.5 C 240.833,165.5 241.167,165.5 241.5,165.5C 241.315,166.17 240.981,166.17 240.5,165.5 Z"/></g>
<g><path style="opacity:0.02" fill="#000000" d="M 239.5,166.5 C 239.833,166.5 240.167,166.5 240.5,166.5C 240.315,167.17 239.981,167.17 239.5,166.5 Z"/></g>
<g><path style="opacity:0.012" fill="#000000" d="M 238.5,167.5 C 238.833,167.5 239.167,167.5 239.5,167.5C 239.315,168.17 238.981,168.17 238.5,167.5 Z"/></g>
<g><path style="opacity:1" fill="#c9c9c9" d="M 211.5,165.5 C 212.833,168.167 212.833,170.833 211.5,173.5C 210.778,174.551 209.778,175.218 208.5,175.5C 209.519,172.206 209.519,168.872 208.5,165.5C 209.5,165.5 210.5,165.5 211.5,165.5 Z"/></g>
<g><path style="opacity:0.012" fill="#000000" d="M 236.5,169.5 C 236.5,169.167 236.5,168.833 236.5,168.5C 237.167,168.5 237.833,168.5 238.5,168.5C 238.158,169.338 237.492,169.672 236.5,169.5 Z"/></g>
<g><path style="opacity:0.016" fill="#000000" d="M 235.5,169.5 C 235.833,169.5 236.167,169.5 236.5,169.5C 236.315,170.17 235.981,170.17 235.5,169.5 Z"/></g>
<g><path style="opacity:0.016" fill="#000000" d="M 234.5,170.5 C 234.833,170.5 235.167,170.5 235.5,170.5C 235.315,171.17 234.981,171.17 234.5,170.5 Z"/></g>
<g><path style="opacity:0.01" fill="#000000" d="M 232.5,172.5 C 232.5,172.167 232.5,171.833 232.5,171.5C 233.167,171.5 233.833,171.5 234.5,171.5C 234.158,172.338 233.492,172.672 232.5,172.5 Z"/></g>
<g><path style="opacity:0.024" fill="#000000" d="M 231.5,172.5 C 231.833,172.5 232.167,172.5 232.5,172.5C 232.315,173.17 231.981,173.17 231.5,172.5 Z"/></g>
<g><path style="opacity:0.016" fill="#000000" d="M 230.5,173.5 C 230.833,173.5 231.167,173.5 231.5,173.5C 231.315,174.17 230.981,174.17 230.5,173.5 Z"/></g>
<g><path style="opacity:0.024" fill="#4f4f4f" d="M 211.5,173.5 C 211.833,173.5 212.167,173.5 212.5,173.5C 212.833,174.167 213.167,174.833 213.5,175.5C 212.167,175.5 211.5,174.833 211.5,173.5 Z"/></g>
<g><path style="opacity:0.01" fill="#000000" d="M 228.5,174.5 C 229.167,174.5 229.833,174.5 230.5,174.5C 230.027,175.906 229.027,176.573 227.5,176.5C 227.5,176.167 227.5,175.833 227.5,175.5C 228.167,175.5 228.5,175.167 228.5,174.5 Z"/></g>
<g><path style="opacity:0.012" fill="#417c40" d="M 162.5,175.5 C 162.833,175.5 163.167,175.5 163.5,175.5C 163.737,176.791 163.404,177.791 162.5,178.5C 162.5,177.5 162.5,176.5 162.5,175.5 Z"/></g>
<g><path style="opacity:0.013" fill="#1e1e1e" d="M 208.5,175.5 C 208.5,175.833 208.5,176.167 208.5,176.5C 205.5,176.5 202.5,176.5 199.5,176.5C 202.166,176.02 204.666,175.02 207,173.5C 207.278,174.416 207.778,175.082 208.5,175.5 Z"/></g>
<g><path style="opacity:0.02" fill="#000000" d="M 226.5,176.5 C 226.833,176.5 227.167,176.5 227.5,176.5C 227.315,177.17 226.981,177.17 226.5,176.5 Z"/></g>
<g><path style="opacity:0.016" fill="#40803f" d="M -0.5,177.5 C 0.833333,178.167 0.833333,178.167 -0.5,177.5 Z"/></g>
<g><path style="opacity:0.861" fill="#329e5a" d="M 1.5,177.5 C 24.0062,177.169 46.3396,177.503 68.5,178.5C 67.2905,178.932 66.2905,179.599 65.5,180.5C 64.5084,180.328 63.8417,180.662 63.5,181.5C 62.209,181.263 61.209,181.596 60.5,182.5C 59.209,182.263 58.209,182.596 57.5,183.5C 40.83,183.667 24.1633,183.5 7.5,183C 4.39277,182.294 2.39277,180.461 1.5,177.5 Z"/></g>
<g><path style="opacity:0.02" fill="#000000" d="M 225.5,177.5 C 225.833,177.5 226.167,177.5 226.5,177.5C 226.315,178.17 225.981,178.17 225.5,177.5 Z"/></g>
<g><path style="opacity:0.983" fill="#329e59" d="M 162.5,133.5 C 162.5,147.5 162.5,161.5 162.5,175.5C 161.596,176.209 161.263,177.209 161.5,178.5C 160.833,178.5 160.5,178.833 160.5,179.5C 159.833,179.5 159.5,179.833 159.5,180.5C 158.833,180.5 158.5,180.833 158.5,181.5C 157.833,181.5 157.5,181.833 157.5,182.5C 156.508,182.328 155.842,182.662 155.5,183.5C 91.5,183.833 91.5,184.167 155.5,184.5C 140.676,185.496 125.676,185.829 110.5,185.5C 110.83,201.675 110.496,217.675 109.5,233.5C 109.167,169.5 108.833,169.5 108.5,233.5C 107.596,234.209 107.263,235.209 107.5,236.5C 106.662,236.842 106.328,237.508 106.5,238.5C 105.833,238.5 105.5,238.833 105.5,239.5C 104.833,239.5 104.5,239.833 104.5,240.5C 102.847,240.66 101.514,241.326 100.5,242.5C 87.8289,242.667 75.1623,242.5 62.5,242C 59.0618,240.723 56.3951,238.557 54.5,235.5C 54.5,219.833 54.5,204.167 54.5,188.5C 62.631,187.929 69.631,184.929 75.5,179.5C 76.1667,179.5 76.5,179.167 76.5,178.5C 77.1667,178.5 77.5,178.167 77.5,177.5C 105.167,177.5 132.833,177.5 160.5,177.5C 160.5,162.167 160.5,146.833 160.5,131.5C 140.833,131.5 121.167,131.5 101.5,131.5C 101.5,131.167 101.5,130.833 101.5,130.5C 102.167,130.5 102.5,130.167 102.5,129.5C 103.167,129.5 103.5,129.167 103.5,128.5C 104.167,128.5 104.5,128.167 104.5,127.5C 105.167,127.5 105.5,127.167 105.5,126.5C 122.426,125.349 139.426,125.182 156.5,126C 159.122,128.109 161.122,130.609 162.5,133.5 Z"/></g>
<g><path style="opacity:0.012" fill="#55aa54" d="M 161.5,178.5 C 161.833,178.5 162.167,178.5 162.5,178.5C 162.315,179.17 161.981,179.17 161.5,178.5 Z"/></g>
<g><path style="opacity:0.016" fill="#000000" d="M 224.5,178.5 C 224.833,178.5 225.167,178.5 225.5,178.5C 225.315,179.17 224.981,179.17 224.5,178.5 Z"/></g>
<g><path style="opacity:0.012" fill="#55aa54" d="M 160.5,179.5 C 160.833,179.5 161.167,179.5 161.5,179.5C 161.315,180.17 160.981,180.17 160.5,179.5 Z"/></g>
<g><path style="opacity:0.016" fill="#000000" d="M 223.5,179.5 C 223.833,179.5 224.167,179.5 224.5,179.5C 224.315,180.17 223.981,180.17 223.5,179.5 Z"/></g>
<g><path style="opacity:0.008" fill="#318d72" d="M 65.5,181.5 C 65.5,181.167 65.5,180.833 65.5,180.5C 68.1667,180.833 68.1667,181.167 65.5,181.5 Z"/></g>
<g><path style="opacity:0.008" fill="#00807f" d="M 159.5,180.5 C 159.833,180.5 160.167,180.5 160.5,180.5C 160.315,181.17 159.981,181.17 159.5,180.5 Z"/></g>
<g><path style="opacity:0.007" fill="#000000" d="M 193.5,180.5 C 194.167,180.5 194.5,180.833 194.5,181.5C 195.167,181.5 195.5,181.833 195.5,182.5C 196.167,182.5 196.5,182.833 196.5,183.5C 196.631,184.239 196.464,184.906 196,185.5C 195,184.5 194,183.5 193,182.5C 192.308,181.563 192.475,180.897 193.5,180.5 Z"/></g>
<g><path style="opacity:0.024" fill="#000000" d="M 222.5,180.5 C 222.833,180.5 223.167,180.5 223.5,180.5C 223.315,181.17 222.981,181.17 222.5,180.5 Z"/></g>
<g><path style="opacity:0.008" fill="#3ae271" d="M 63.5,182.5 C 63.5,182.167 63.5,181.833 63.5,181.5C 64.1667,181.5 64.8333,181.5 65.5,181.5C 65.1583,182.338 64.4916,182.672 63.5,182.5 Z"/></g>
<g><path style="opacity:0.008" fill="#00807f" d="M 158.5,181.5 C 158.833,181.5 159.167,181.5 159.5,181.5C 159.315,182.17 158.981,182.17 158.5,181.5 Z"/></g>
<g><path style="opacity:0.011" fill="#000000" d="M 221.5,181.5 C 221.833,181.5 222.167,181.5 222.5,181.5C 222.392,183.514 223.058,185.18 224.5,186.5C 223.833,186.5 223.167,186.5 222.5,186.5C 221.833,186.5 221.5,186.167 221.5,185.5C 221.5,184.167 221.5,182.833 221.5,181.5 Z"/></g>
<g><path style="opacity:0.016" fill="#2d5e40" d="M 60.5,183.5 C 60.5,183.167 60.5,182.833 60.5,182.5C 61.5,182.5 62.5,182.5 63.5,182.5C 62.791,183.404 61.791,183.737 60.5,183.5 Z"/></g>
<g><path style="opacity:0.012" fill="#55aa54" d="M 157.5,182.5 C 157.833,182.5 158.167,182.5 158.5,182.5C 158.315,183.17 157.981,183.17 157.5,182.5 Z"/></g>
<g><path style="opacity:0.016" fill="#389e60" d="M 57.5,184.5 C 57.5,184.167 57.5,183.833 57.5,183.5C 58.5,183.5 59.5,183.5 60.5,183.5C 59.791,184.404 58.791,184.737 57.5,184.5 Z"/></g>
<g><path style="opacity:0.008" fill="#318d72" d="M 155.5,184.5 C 155.5,184.167 155.5,183.833 155.5,183.5C 156.167,183.5 156.833,183.5 157.5,183.5C 157.158,184.338 156.492,184.672 155.5,184.5 Z"/></g>
<g><path style="opacity:0.012" fill="#51a455" d="M 57.5,184.5 C 41.0051,185.662 24.3384,185.828 7.5,185C 24.1633,184.5 40.83,184.333 57.5,184.5 Z"/></g>
<g><path style="opacity:0.016" fill="#3f803e" d="M 53.5,235.5 C 52.3387,220.005 52.172,204.339 53,188.5C 53.4999,204.163 53.6666,219.83 53.5,235.5 Z"/></g>
<g><path style="opacity:0.007" fill="#000000" d="M 229.5,192.5 C 231.292,191.527 232.625,192.194 233.5,194.5C 232.833,194.5 232.167,194.5 231.5,194.5C 230.833,194.5 230.5,194.167 230.5,193.5C 229.833,193.5 229.5,193.167 229.5,192.5 Z"/></g>
<g><path style="opacity:0.008" fill="#000000" d="M 204.5,192.5 C 205.167,192.5 205.5,192.833 205.5,193.5C 205.253,195.975 204.587,195.975 203.5,193.5C 203.624,192.893 203.957,192.56 204.5,192.5 Z"/></g>
<g><path style="opacity:0.007" fill="#000000" d="M 233.5,194.5 C 236.087,195.648 237.087,197.315 236.5,199.5C 235.833,199.5 235.5,199.167 235.5,198.5C 234.833,198.5 234.5,198.167 234.5,197.5C 233.833,197.5 233.5,197.167 233.5,196.5C 233.5,195.833 233.5,195.167 233.5,194.5 Z"/></g>
<g><path style="opacity:0.012" fill="#060606" d="M 228.5,203.5 C 229.167,203.5 229.5,203.833 229.5,204.5C 229.833,205.167 230.167,205.833 230.5,206.5C 229.833,206.833 229.167,207.167 228.5,207.5C 228.672,206.508 228.338,205.842 227.5,205.5C 227.328,204.508 227.662,203.842 228.5,203.5 Z"/></g>
<g><path style="opacity:0.006" fill="#000000" d="M 231.5,207.5 C 232.167,207.5 232.833,207.5 233.5,207.5C 234.167,207.5 234.5,207.833 234.5,208.5C 235.167,208.5 235.5,208.833 235.5,209.5C 235.5,210.167 235.5,210.833 235.5,211.5C 233.833,210.5 232.5,209.167 231.5,207.5 Z"/></g>
<g><path style="opacity:0.014" fill="#000000" d="M 252.5,223.5 C 252.369,222.761 252.536,222.094 253,221.5C 253.692,222.437 253.525,223.103 252.5,223.5 Z"/></g>
<g><path style="opacity:0.014" fill="#000000" d="M 237.5,224.5 C 237.167,224.5 236.833,224.5 236.5,224.5C 236.833,221.833 237.167,221.833 237.5,224.5 Z"/></g>
<g><path style="opacity:0.01" fill="#000000" d="M 237.5,224.5 C 238.573,225.251 238.74,226.251 238,227.5C 237.517,226.552 237.351,225.552 237.5,224.5 Z"/></g>
<g><path style="opacity:0.013" fill="#000000" d="M 239.5,231.5 C 239.167,231.5 238.833,231.5 238.5,231.5C 238.833,227.5 239.167,227.5 239.5,231.5 Z"/></g>
<g><path style="opacity:0.012" fill="#000000" d="M 239.5,231.5 C 240.598,232.601 240.765,233.934 240,235.5C 239.51,234.207 239.343,232.873 239.5,231.5 Z"/></g>
<g><path style="opacity:0.016" fill="#349e64" d="M 108.5,233.5 C 108.833,233.5 109.167,233.5 109.5,233.5C 109.737,234.791 109.404,235.791 108.5,236.5C 108.5,235.5 108.5,234.5 108.5,233.5 Z"/></g>
<g><path style="opacity:0.008" fill="#000000" d="M 254.5,234.5 C 254.5,234.833 254.5,235.167 254.5,235.5C 253.83,235.019 253.83,234.685 254.5,234.5 Z"/></g>
<g><path style="opacity:0.004" fill="#000000" d="M 254.5,235.5 C 254.833,235.5 255.167,235.5 255.5,235.5C 255.5,235.833 255.5,236.167 255.5,236.5C 255.167,236.167 254.833,235.833 254.5,235.5 Z"/></g>
<g><path style="opacity:0.008" fill="#318d72" d="M 53.5,235.5 C 53.8333,235.5 54.1667,235.5 54.5,235.5C 54.1667,238.167 53.8333,238.167 53.5,235.5 Z"/></g>
<g><path style="opacity:0.008" fill="#318d72" d="M 107.5,236.5 C 107.833,236.5 108.167,236.5 108.5,236.5C 108.672,237.492 108.338,238.158 107.5,238.5C 107.5,237.833 107.5,237.167 107.5,236.5 Z"/></g>
<g><path style="opacity:0.012" fill="#55aa54" d="M 106.5,238.5 C 106.833,238.5 107.167,238.5 107.5,238.5C 107.315,239.17 106.981,239.17 106.5,238.5 Z"/></g>
<g><path style="opacity:0.012" fill="#55aa54" d="M 105.5,239.5 C 105.833,239.5 106.167,239.5 106.5,239.5C 106.315,240.17 105.981,240.17 105.5,239.5 Z"/></g>
<g><path style="opacity:0.012" fill="#55aa54" d="M 104.5,240.5 C 104.833,240.5 105.167,240.5 105.5,240.5C 105.315,241.17 104.981,241.17 104.5,240.5 Z"/></g>
<g><path style="opacity:0.008" fill="#00807f" d="M 104.5,241.5 C 103.833,242.167 103.833,242.167 104.5,241.5 Z"/></g>
<g><path style="opacity:0.012" fill="#55aa54" d="M 100.5,243.5 C 100.5,243.167 100.5,242.833 100.5,242.5C 103.167,242.833 103.167,243.167 100.5,243.5 Z"/></g>
<g><path style="opacity:0.011" fill="#000000" d="M 241.5,250.5 C 241.336,247.813 241.503,245.146 242,242.5C 242.801,245.367 242.634,248.034 241.5,250.5 Z"/></g>
<g><path style="opacity:0.004" fill="#08f704" d="M 100.5,243.5 C 88.0067,244.66 75.3401,244.827 62.5,244C 75.1623,243.5 87.8289,243.333 100.5,243.5 Z"/></g>
<g><path style="opacity:0.009" fill="#000000" d="M 236.5,245.5 C 236.5,246.5 236.5,247.5 236.5,248.5C 235.167,247.5 235.167,246.5 236.5,245.5 Z"/></g>
<g><path style="opacity:0.012" fill="#000000" d="M 236.5,248.5 C 237.525,248.897 237.692,249.563 237,250.5C 236.536,249.906 236.369,249.239 236.5,248.5 Z"/></g>
<g><path style="opacity:0.004" fill="#000000" d="M 238.5,251.5 C 237.833,252.167 237.833,252.167 238.5,251.5 Z"/></g>
<g><path style="opacity:0.004" fill="#000000" d="M 239.5,253.5 C 240.833,254.167 240.833,254.167 239.5,253.5 Z"/></g>
</svg>
